<?xml version="1.0" encoding="utf-8"?><svg width="247" height="232" viewBox="0 0 247 232" xmlns="http://www.w3.org/2000/svg" xmlns:xlink="http://www.w3.org/1999/xlink"><svg id="comment" data-name="Layer 1" width="64" height="64" viewBox="0 0 64 64" x="28" y="58" xmlns="http://www.w3.org/2000/svg"><defs><style>.acls-1{fill:#2f5572}</style></defs><title>comment</title><path class="acls-1" d="M.72.08A.67.67 0 0 0 0 .8v46.48a.72.72 0 0 0 .72.72H48l16 16V.72a.67.67 0 0 0-.72-.72H.8z"/></svg><svg id="facebook" data-name="Layer 1" width="21.23" height="42.01" viewBox="0 0 21.23 42.01" x="156" y="58" xmlns="http://www.w3.org/2000/svg"><defs><style>.bcls-1{fill:#fff}</style></defs><title>facebook</title><path class="bcls-1" d="M21.23.31V7H17.4a3.55 3.55 0 0 0-2.85.91 4.26 4.26 0 0 0-.74 2.72v4.77H21l-1 7.47h-6.19V42H6.27V22.85H0v-7.47h6.27V9.85q0-4.69 2.55-7.28A9 9 0 0 1 15.63 0a39.57 39.57 0 0 1 5.6.31z"/></svg><svg id="globe" data-name="Layer 1" width="64" height="64" viewBox="0 0 64 64" x="92" y="58" xmlns="http://www.w3.org/2000/svg"><defs><style>.ccls-1{fill:#d4953f}</style></defs><title>globe</title><path class="ccls-1" d="M32 0a32 32 0 1 0 32 32A32 32 0 0 0 32 0zm0 8a23.75 23.75 0 0 1 7.52 1.52c-1.68 1.6-3.6 3-3.28 4.48s5.52 1 5.52 4c0 2.16-3.36 2.8-1 5.28 2.8 2.8-5.12 7.84-5.28 11.52-.24 6.64 6.72 7.76 12.24 7.76 3.36 0 4.24 1.6 4 3.52a24.07 24.07 0 0 1-19.76 10 22.94 22.94 0 0 1-8.48-1.76c1.76-3.52-2.24-10.48-6-12.72-1.84-1.84-5.76-1.12-8-2a23.49 23.49 0 0 1-1.52-6.72 1.42 1.42 0 0 1 1.28-.72c1.52 0 3.6 3 4.72 2.72 1.4-.32-5.96-10.48-2.52-12.48 1.6-1 4.8 3.12 3.76-1.28-1-4.08 2.88-2.24 5.28-3.28 2.08-.88 3.6-3.28 1-4.72a8.55 8.55 0 0 1-1.76-1.52A23.75 23.75 0 0 1 32 8.08V8zm18.48 8.72A26.46 26.46 0 0 1 54 22.48v.24a11.78 11.78 0 0 1-1.76 1.76C50 26.72 49.68 22.8 48.72 22c-1-1-4.8.16-5.28-1-.56-1.48 4-3.4 7.04-4.28z"/></svg><svg id="instagram" data-name="Layer 1" width="42.01" height="42.01" viewBox="0 0 42.01 42.01" x="60" y="168" xmlns="http://www.w3.org/2000/svg"><defs><style>.dcls-1{fill:#fff}</style></defs><title>instagram</title><path class="dcls-1" d="M37.25 35.49V17.77h-3.69a11.77 11.77 0 0 1 .57 3.58 12.12 12.12 0 0 1-1.75 6.36 12.76 12.76 0 0 1-4.76 4.59 13.13 13.13 0 0 1-6.56 1.7 12.78 12.78 0 0 1-9.19-3.71 12 12 0 0 1-3.83-9 11.77 11.77 0 0 1 .49-3.56H4.68v17.76a1.63 1.63 0 0 0 1.6 1.67h29.3a1.63 1.63 0 0 0 1.17-.47 1.59 1.59 0 0 0 .5-1.2zm-7.77-14.57A7.75 7.75 0 0 0 27 15.14a8.28 8.28 0 0 0-6-2.4 8.25 8.25 0 0 0-5.91 2.39 7.75 7.75 0 0 0-2.47 5.78 7.75 7.75 0 0 0 2.47 5.79A8.25 8.25 0 0 0 21 29.1a8.28 8.28 0 0 0 6-2.4 7.75 7.75 0 0 0 2.48-5.78zm7.76-9.84V6.56a1.84 1.84 0 0 0-.54-1.31 1.8 1.8 0 0 0-1.31-.56h-4.78a1.8 1.8 0 0 0-1.31.56 1.84 1.84 0 0 0-.54 1.31v4.52A1.87 1.87 0 0 0 30.6 13h4.8a1.87 1.87 0 0 0 1.85-1.89zM42 5.39v31.23A5.41 5.41 0 0 1 36.62 42H5.39a5.19 5.19 0 0 1-3.8-1.59A5.19 5.19 0 0 1 0 36.62V5.39a5.19 5.19 0 0 1 1.59-3.8A5.19 5.19 0 0 1 5.39 0h31.23a5.19 5.19 0 0 1 3.8 1.59A5.19 5.19 0 0 1 42 5.39z"/></svg><svg id="mail" data-name="Layer 1" width="64" height="48" viewBox="0 0 64 48" x="183" xmlns="http://www.w3.org/2000/svg"><defs><style>.ecls-1{fill:#2f5572}</style></defs><title>mail</title><path class="ecls-1" d="M0 0v8l32 16L64 8V0H0zm0 16v32h64V16L32 32z"/></svg><svg id="star" data-name="Layer 1" width="64" height="64" viewBox="0 0 64 64" x="183" y="48" xmlns="http://www.w3.org/2000/svg"><defs><style>.fcls-1{fill:#d4953f}</style></defs><title>star</title><path class="fcls-1" d="M32 0l-8 24H0l20 16-8 24 20-16 20 16-8-24 20-16H40z"/></svg><svg width="45" height="37" viewBox="0 0 45 37" id="stinky-cheese" x="28" y="122" xmlns="http://www.w3.org/2000/svg"><title>30196-very-very-stinky-cheese-vector</title><g transform="matrix(1 0 0 -1 0 36.818)" fill="none" fill-rule="evenodd"><path d="M20.415 35.139a.991.991 0 0 1-.254-.049c-.097-.044-.146-.151-.146-.323 0-.17.01-.258.019-.268l.015.03c.069-.059.161-.113.279-.162a1.122 1.122 0 0 1-.04-.302.691.691 0 0 1 .01-.279.753.753 0 0 1-.2-.025c-.377-.087-.562-.239-.562-.464.024-.16.034-.282.034-.37a.707.707 0 0 0 .205-.142c.054-.034.161-.049.323-.049.156 0 .283.034.366.098l.112.092c.01.064.024.108.049.133.02.01.029.087.029.239v.093c.107-.04.245-.063.401-.063.244 0 .439.082.576.238a.831.831 0 0 1 .175.548c0 .512-.248.751-.751.717a.901.901 0 0 1-.24-.03v.015a.883.883 0 0 1-.4.323zm-.703-.753a.61.61 0 0 1-.255.225 1.863 1.863 0 0 0-.272-.097c-.064-.054-.094-.167-.094-.338 0-.19.02-.307.064-.351.02-.019.122-.054.302-.098.118.054.235.162.353.323a.662.662 0 0 1-.098.336zm20.044-12.895c.068-.151.142-.297.219-.44a148.481 148.481 0 0 0 1.47-1.747c.21-.171.43-.338.665-.494.307-.2.561-.38.766-.546.264-.293.503-.556.718-.791.19-.342.297-.738.327-1.192.103-.122.2-.243.298-.371-.142-.092-.284-.19-.425-.287-.005 0-.01-.005-.015-.005a4.5 4.5 0 0 1-.175-.123 2.939 2.939 0 0 0-.113-.072c-2.177-1.495-4.736-3.42-7.676-5.773l-1.391-1.103c-.005.093-.015.147-.029.16l-.049.05c-.445.083-.737.053-.88-.098-.072-.073-.111-.2-.111-.38 0-.02.111-.123.336-.313-2.515-1.982-4.434-3.457-5.751-4.428-.148.238-.332.512-.558.815-.102.136-.2.268-.297.386.21.043.313.17.313.385 0 .127-.03.288-.08.479a.806.806 0 0 1-.37.078c-.073 0-.22-.04-.444-.127-.015-.034-.029-.064-.039-.093-.21.205-.376.332-.508.38-.57.196-1.118.684-1.626 1.475-.532.82-.976 1.319-1.328 1.49-.362.17-1.108.367-2.237.59a7.417 7.417 0 0 0-.63.161c-.546.464-1.117.928-1.709 1.392-.005 0-.005.005-.01.01h-.005l.006.005c-.308.458-.508.752-.605.883-.152.182-.26.513-.338.992a8.273 8.273 0 0 1-.19.878 1.863 1.863 0 0 1-.113.29 4.592 4.592 0 0 1-.487.76c.116.03.215.088.298.167v-.015c0-.171.005-.259.014-.274l.014.035a1.07 1.07 0 0 1 .372-.191c.127.053.23.132.302.24a.4.4 0 0 1 .094.239.907.907 0 0 1-.396.322 1.327 1.327 0 0 1-.2-.034c.024.088.038.18.038.273 0 .509-.244.777-.736.801.053.049.093.103.131.156a2.68 2.68 0 0 1-.161.357c-.151.03-.302.04-.464.03a2.7 2.7 0 0 0-.253-.03.44.44 0 0 0-.064-.113c-.015-.014-.02-.093-.02-.244 0-.02.03-.059.084-.112.063-.054.126-.113.19-.166-.18-.112-.283-.308-.303-.585-.01.005-.02.013-.034.018-.811.254-1.455.484-1.933.689-.615.391-1.114.709-1.486.943-.702.44-1.406.653-2.108.653-.187 0-.367.01-.543.02-.244.02-.479.044-.702.088a5.273 5.273 0 0 0-2.492 1.177c-.887.747-1.425 1.704-1.614 2.872a6.015 6.015 0 0 0-.08 1c0 .332.03.65.088.952l.074-.005c.005.328.23.771.664 1.329.24.302.542.638.909 1.015.6.459 1.327.87 2.182 1.24 1.215.522 3.13 1.085 5.751 1.68.938.205 1.636.791 2.09 1.762.42.875.743 1.534.968 1.983.185.352.312.571.376.66.556.684 1.328 1.215 2.319 1.601a7.814 7.814 0 0 0 2.905.556c.704 0 1.319-.166 1.856-.492.205-.128.508-.371.918-.748.424-.233.878-.522 1.357-.855.185-.057.395-.107.63-.146.146-.024.283-.054.415-.078.679-.142 1.181-.302 1.504-.478.702-.42 1.376-1.289 2.026-2.613l-.015-.015c.015-.014.03-.034.049-.049.235-.468.494-.893.781-1.273.371-.357.748-.733 1.134-1.129.185-.131.38-.254.576-.366.131-.073.321-.175.575-.313.299-.156.684-.356 1.148-.6.747-.44 1.157-.855 1.23-1.25.098-.532.454-1.016 1.075-1.455.65-.458 1.064-1.016 1.244-1.665.025-.092.05-.186.08-.273.023-.078.053-.162.077-.24-.029-.004-.059-.02-.093-.03-.19-.067-.302-.15-.336-.258.073-.082.21-.136.4-.161a.54.54 0 0 1 .166.122zm-1.016-.2c-.146.19-.293.337-.43.43-.214.044-.351-.01-.415-.156a.76.76 0 0 1-.034-.274c0-.02.152-.171.449-.45a.515.515 0 0 1 .255.148c.009.018.068.121.175.302zM18.589 31.994a1.814 1.814 0 0 1-.2-.059 1.52 1.52 0 0 1-.015-.209c0-.156.053-.273.156-.352a.315.315 0 0 1 .195-.078c.191 0 .42.131.684.4-.2.215-.415.318-.634.318h-.045a.388.388 0 0 1 .122.195c-.043.053-.122.088-.238.112-.089.015-.152.03-.201.039l.01.01-.162.24h-.21c-.018 0-.034-.005-.043-.02-.044-.03-.068-.128-.068-.289 0-.165.024-.248.067-.239.01 0 .025.026.044.064a.39.39 0 0 1 .274.098c.015-.02.03-.044.049-.064a.653.653 0 0 1 .215-.166zm3.857 1.48c0-.161.01-.244.034-.259.064-.02.094-.034.094-.044l.321-.084c.156 0 .264.02.317.064l.08.064c.014.064.033.102.068.112.029.01.044.093.044.24 0 .17-.02.263-.064.273a.428.428 0 0 0-.205.049c-.459-.044-.689-.181-.689-.415zm.449 1.104c-.063.15-.2.238-.4.273 0-.025-.082-.035-.239-.035l-.049-.274c0-.156.02-.243.063-.253h.225c.225.063.356.161.4.288zm-.639.59c-.097.142-.259.21-.479.21a.59.59 0 0 1 .064-.273l.049-.094c.19.03.313.084.366.156zm-4.951-3.682a1.494 1.494 0 0 1-.45.049.57.57 0 0 1 .049-.239l.03-.078c.243.02.42.073.527.156l-.156.112zm.395-1.552c-.532 0-.796-.264-.796-.802 0 .035.025-.087.079-.366.127-.287.366-.433.717-.433.279 0 .494.107.64.32a.811.811 0 0 1 .161.48c0 .537-.268.8-.801.8zm.435-.049a.725.725 0 0 0 .205-.141c.054-.035.161-.049.323-.049.156 0 .277.034.366.098l.111.092c.01.069.025.107.05.131.019.01.029.089.029.24 0 .405-.185.561-.556.464-.377-.087-.563-.24-.563-.464.025-.161.035-.284.035-.371zm-5.943-2.51l-.082.239a1.985 1.985 0 0 1-.576.127 6.384 6.384 0 0 0-.269-.015.329.329 0 0 0-.064-.112c-.01-.009-.015-.093-.015-.239 0-.044.146-.195.445-.449.224.083.41.234.562.449zm1.66-2.226c-.068.433-.327.635-.78.61-.538-.024-.802-.303-.802-.835 0-.098.01-.19.035-.279a2.274 2.274 0 0 1-.249-.321 1.653 1.653 0 0 1-.152.008v-.21a.638.638 0 0 0 .03-.028.742.742 0 0 1-.03-.195c0-.533.107-.968.317-1.294l.015-.02c.133-.19.303-.346.513-.464.386-.235.942-.351 1.68-.351.532 0 .981.116 1.357.351.444.269.669.664.669 1.187 0 .087-.01.17-.029.253-.088.42-.411.782-.977 1.089a3.9 3.9 0 0 1-1.597.499zm2.173 3.354c-.229.024-.42.044-.561.053-.18-.062-.293-.126-.333-.19-.024-.034-.034-.112-.034-.238a.49.49 0 0 1 .162-.353h.796v.514a1.04 1.04 0 0 1 .371-.197.715.715 0 0 1 .303.24.409.409 0 0 1 .092.244c-.054.128-.185.234-.395.318a.891.891 0 0 1-.258-.049c-.094-.039-.143-.146-.143-.317v-.025zm1.675-.572c-.479.015-.717-.219-.717-.702l.033-.303c.094-.288.323-.435.684-.435.133 0 .269.054.415.162.205.14.308.317.308.527 0 .503-.244.751-.723.751zm-9.677-2.48c-.044 0-.137-.034-.274-.112-.264-.308-.4-.498-.4-.576 0-.157.161-.303.478-.43.26-.107.47-.16.64-.16.375 0 .562.195.562.59 0 .224-.108.4-.323.532a.979.979 0 0 1-.415.141c-.084.01-.176.015-.268.015zm3.447-2.207c.107.03.224.112.351.24-.028.126-.146.233-.351.322 0-.025-.079-.035-.24-.035l-.044-.274c0-.156.02-.243.064-.253h.22zm-4.951.767c-.533 0-.796-.264-.796-.801 0 .034.03-.082.092-.351.127-.299.361-.45.704-.45.279 0 .492.107.64.322.106.161.16.323.16.479 0 .537-.268.801-.8.801zm.8-3.36c-.18.108-.356.162-.526.162 0-.088.013-.167.048-.244l.029-.079c.244.02.395.074.449.161zm-1.025 1.294a.496.496 0 0 0-.064.176 2.88 2.88 0 0 1-.605.034c-.151-.019-.239-.034-.274-.034a.283.283 0 0 0-.064-.112c-.008-.01-.013-.088-.013-.239 0-.04.151-.191.449-.45.01.015.087.054.24.133.156.082.302.19.428.317a.873.873 0 0 1-.097.175zm.64.064l.018.034c.084-.073.207-.137.367-.19.05.01.099.03.152.063h.004c.069-.01.118-.025.161-.034a.331.331 0 0 1 .191.24c-.034.02-.068.028-.102.043.01.01.014.025.024.039-.019.03-.167.181-.43.45a1.472 1.472 0 0 1-.259-.049c-.092-.045-.141-.151-.141-.323 0-.17.005-.258.015-.273zm5.122-2.393c.132-.268.362-.405.693-.405.278 0 .493.108.64.318a.82.82 0 0 1 .161.482c0 .533-.269.802-.801.802a1.17 1.17 0 0 1-.269-.034c-.009.005-.014.01-.019.014l-.015.02a1.669 1.669 0 0 1-.463.078h-.03c-.03.478-.303.718-.816.718-.55-.01-.83-.205-.83-.582 0 .05.025-.053.08-.312.13-.279.37-.42.717-.435v-.029c0-.117.107-.254.322-.4.21-.161.395-.24.556-.24.024 0 .05 0 .074.005zm6.191 4.17c-.024-.039-.035-.127-.035-.254 0-.02.152-.17.45-.45.117.035.2.08.254.148l.175.302c-.151.19-.292.337-.428.43-.215.034-.353-.024-.416-.176zm-2.335-3.599a2.564 2.564 0 0 1-.35-.13c-.542-.274-.977-.494-1.294-.656a6.59 6.59 0 0 1 1.18-.878l.016-.02c.522-.298.914-.444 1.167-.444.244 0 .469.112.674.336a1.216 1.216 0 0 1 .331.845c0 .118-.008.23-.028.338-.015.043-.026.082-.034.112a1.232 1.232 0 0 1-.269.4.82.82 0 0 1-.21.146 1.508 1.508 0 0 1-.479.156 4.425 4.425 0 0 1-.704-.204zm13.883 9.155a.748.748 0 0 1 .049.274c0 .533-.269.802-.802.802-.53 0-.795-.27-.795-.802 0 .029.03-.092.093-.371.126-.288.361-.43.703-.43.097 0 .19.015.273.04v-.01c0-.141.093-.269.289-.376-.099.02-.205.025-.323.025-.356 0-.625-.074-.796-.215-.117.248-.356.375-.717.375-.156 0-.284-.019-.396-.063a3.57 3.57 0 0 1-.23.4.911.911 0 0 1 .303-.176c.074 0 .171.035.289.112.106.074.17.143.19.206a.59.59 0 0 1-.317.322c-.137 0-.298-.146-.48-.439a3.972 3.972 0 0 1-.863.903 4.394 4.394 0 0 1-1.07.625c-.288.02-.751.03-1.391.03-.21 0-.43-.015-.669-.045.117.04.2.088.254.142.053.054.087.142.097.259a.749.749 0 0 1-.351.317c-.118 0-.2-.01-.24-.03-.087-.033-.131-.136-.131-.307 0-.171.034-.277.097-.317a.964.964 0 0 1 .264-.064 8.126 8.126 0 0 1-.869-.16 8.126 8.126 0 0 1-1.744-.625c-1.352-.684-2.026-1.534-2.026-2.545 0-.352.059-.683.177-.995.272-.748.893-1.368 1.85-1.872a7.113 7.113 0 0 1 1.772-.658 6.978 6.978 0 0 1 1.596-.205c1.324 0 2.282.225 2.877.668.18.142.342.308.483.5.039.062.083.13.128.21.126.243.224.522.292.83.136-.148.333-.226.586-.226a.79.79 0 0 1 .483.151c.137-.204.348-.307.635-.307.289 0 .504.102.655.317a.898.898 0 0 1 .141.48c0 .536-.264.8-.796.8.64.024.958.288.958.8 0 .298-.108.508-.318.64h.43c0 .024.014.04.049.05.018.023.028.067.028.145 0 .362-.166.61-.492.752-.04.015-.113.035-.225.064zm-1.309 2.672c-.053.131-.185.238-.4.322a.455.455 0 0 1-.24-.21.435.435 0 0 1-.077-.24.924.924 0 0 1 .317-.19c.224.098.357.2.4.318zm-2.446.161c-.044.054-.185.136-.43.239a2.633 2.633 0 0 1-.385.132h-.015a.121.121 0 0 1-.049.014.268.268 0 0 1-.079.015c-.043 0-.14-.044-.287-.126a.772.772 0 0 1-.034-.191c.429-.162.669-.27.723-.323h.478c0 .107.024.186.078.24zm2.207-5.122h-.01c.006.034.01.063.01.097v.054c.034.03.073.063.103.097.156-.272.469-.41.932-.41a.86.86 0 0 1-.38-.102c-.132.176-.352.263-.655.263zm1.758-1.983a.294.294 0 0 1-.082-.049 1.361 1.361 0 0 1-.05-.371c0-.18.16-.366.483-.556.156-.098.318-.177.479-.244.297 0 .537.082.717.244.162.136.24.307.24.512 0 .351-.293.528-.88.528-.477 0-.78-.024-.907-.064zm-7.51-2.387c.254 0 .44.132.556.4-.102.16-.277.25-.526.273-.191.02-.362 0-.509-.064 0-.248.035-.405.113-.482.038-.01.078-.04.112-.094.02-.024.103-.034.254-.034zm-2.846-.592c.043-.044.185-.116.42-.224.233-.117.371-.176.415-.176.102 0 .2.054.287.162a.706.706 0 0 1 .156.4c-.107.102-.292.156-.556.156a3.548 3.548 0 0 1-.688-.303c-.01 0-.02-.005-.034-.015zm.243-.771a.325.325 0 0 0-.068-.108c-.009-.013-.014-.092-.014-.243 0-.157.014-.254.049-.288a.513.513 0 0 1 .112-.079l.449-.077c.19 0 .317.058.381.175.044.064.088.151.127.269-.244.185-.41.292-.493.337a.623.623 0 0 1-.543.014zm6.45-2.705c-.01.035-.018.069-.028.098-.151.46-.45.806-.894 1.04-.548.298-1.343.463-2.398.498-1.108-.244-1.86-.527-2.25-.85-.513-.415-.772-1.088-.772-2.016 0-.65.23-1.148.689-1.49.097-.072.21-.141.336-.21.46-.219 1.075-.331 1.851-.331.982 0 1.826.282 2.544.845.669.536 1.006 1.127 1.006 1.777 0 .234-.03.449-.083.639zm3.228 4.503a1.92 1.92 0 0 0-.254-.035.338.338 0 0 0-.063-.112c-.01-.01-.014-.088-.014-.24 0-.044.146-.19.444-.449.16.054.302.122.43.21.015.064.033.103.068.113.009.009.014.087.014.239 0 .268-.054.346-.161.238a1.575 1.575 0 0 1-.464.035zm5.625-2.178c-.019.136-.039.272-.049.4a4.904 4.904 0 0 1-.19.766 3.92 3.92 0 0 1-.415.865 3.521 3.521 0 0 1-.24.322c-.395.117-.8.176-1.215.176-.127 0-.547-.137-1.26-.4a5.623 5.623 0 0 1-.498-.197 3.07 3.07 0 0 1-.254-.668 3.604 3.604 0 0 1-.098-.849c0-.611.284-1.143.85-1.602a2.95 2.95 0 0 1 1.689-.674c.054 0 .108-.005.161-.014h.099c.254 0 .531.141.83.415l.093.098c.33.35.497.688.497 1.01v.352zm-8.036.892a1.34 1.34 0 0 1-.445-.14.591.591 0 0 1-.113-.323c0-.078.069-.165.215-.264.015-.044.044-.151.088-.326.127-.299.361-.45.704-.45.278 0 .488.107.64.322a.884.884 0 0 1 .156.479c0 .533-.264.801-.796.801a.932.932 0 0 1-.45-.099zm-1.119.226c0 .404-.21.61-.64.61-.425.01-.639-.2-.639-.625 0-.117.054-.234.162-.352.15-.161.35-.238.605-.238.13 0 .248.067.35.204a.627.627 0 0 1 .162.4zm3.691-3.663c-.01.01-.019.015-.034.015h-.043a7.281 7.281 0 0 1-1.168.141c-.492-.243-.786-.633-.878-1.166.278-.161.522-.294.732-.4.18-.084.336-.152.464-.191a.721.721 0 0 1 .161-.049c.136-.034.556-.049 1.26-.049.287 0 .508.01.654.034h.069c.22.03.4.079.54.142 0 .088-.003.167-.013.24-.069.322-.25.586-.548.8-.136.108-.297.2-.478.273-.21.084-.454.156-.718.21zm-.21-4.165c-.371-.082-.556-.239-.556-.464.02-.161.029-.282.029-.366a.776.776 0 0 0 .21-.146c.053-.029.161-.049.317-.049a.62.62 0 0 1 .371.098l.113.097a.27.27 0 0 0 .044.127c.025.01.034.088.034.24 0 .405-.185.562-.562.463zM27.76 6.955c.225-.039.43-.064.62-.072a.713.713 0 0 0 .171-.113c.064-.03.175-.044.336-.044.328 0 .558.078.684.244.069.015.133.029.191.044.152.029.293.063.434.092.352.118.669.274.957.464.792.522 1.182 1.285 1.182 2.276 0 .308-.113.654-.332 1.04a4.282 4.282 0 0 1-.85 1.089c-.522.479-1.055.815-1.596 1.005h-1.47a.975.975 0 0 1-.317.069c-.03.479-.294.717-.801.717-.533 0-.8-.268-.8-.8 0 .034.033-.083.097-.352.01-.019.019-.044.034-.063-.19-.102-.366-.196-.528-.289v.03c0 .503-.244.757-.722.757-.479.01-.718-.225-.718-.708l.034-.302a.574.574 0 0 1 .376-.386 3.016 3.016 0 0 1-.361-.27 1.47 1.47 0 0 1-.4-.658 2.038 2.038 0 0 1-.079-.474l-.02-.005c-.126-.064-.19-.195-.19-.386 0-.067.074-.175.215-.317.079-.518.361-.972.84-1.362.064-.053.132-.107.21-.161.22-.161.488-.307.797-.45.468-.224.98-.4 1.532-.527.054-.01.107-.024.161-.03-.107-.033-.161-.13-.161-.287 0-.171.03-.269.084-.288.038-.015.121-.024.239-.034l.4.077c0 .118-.044.23-.132.338a.66.66 0 0 1-.117.136zm2.753.039c-.243.107-.443.088-.605-.063-.127-.117-.19-.24-.19-.366 0-.025.147-.171.444-.45.127.035.264.084.4.161.01.054.035.113.064.176.034.054.049.152.049.303 0 .269-.054.346-.162.239zm-8.783 5.445c.19.028.312.082.366.161-.146.082-.279.121-.381.113a.627.627 0 0 0-.146-.035l.16-.24zm1.836-.562l-.191.24c-.205 0-.326-.118-.366-.352a.489.489 0 0 1 .283-.205.436.436 0 0 1 .274.317zm-4.313-.19a1.966 1.966 0 0 1-.433.43c-.21.043-.353-.01-.415-.157a.877.877 0 0 1-.03-.274c0-.024.146-.17.445-.448.116.033.205.077.259.146.01.02.067.122.175.302zm1.085 3.442l-.05-.274c0-.16.026-.244.064-.254h.225c.108.03.225.108.351.24-.028.127-.146.234-.35.318 0-.02-.08-.03-.24-.03zm-1.167.914a.706.706 0 0 1-.351.317.646.646 0 0 1-.24-.03c-.059-.024-.098-.082-.117-.176-.073.015-.142.03-.21.04l-.073.215a2.08 2.08 0 0 1-.43.111c.132.01.248.064.351.161a.544.544 0 0 1 .191.415c0 .415-.195.625-.591.625-.405 0-.605-.213-.605-.639 0-.322.151-.508.449-.552-.113-.01-.18-.01-.21-.01a.291.291 0 0 0-.064-.111c-.009-.01-.014-.094-.014-.24 0-.044.146-.195.444-.449.064.024.123.049.176.077.034-.018.136-.028.303-.028.127 0 .23.01.307.028a.146.146 0 0 1 .064-.092.95.95 0 0 1 .269-.064c.116.04.205.089.259.143.053.053.082.141.092.258zm0-.802a.674.674 0 0 1-.113.239c-.35 0-.56-.116-.634-.351a.496.496 0 0 0 .092-.131c.035-.02.133-.03.304-.03.18 0 .287.02.321.063l.03.21zm9.795-8.676c-.586 0-.879-.269-.879-.801 0 .029.024-.088.078-.352.142-.298.405-.45.801-.45.332 0 .571.108.718.318a.82.82 0 0 1 .16.484c0 .532-.292.801-.878.801zM15.259 16.12c0 .161-.01.284-.034.366-.274.142-.518.177-.719.113l-.049-.254c0-.171.035-.279.1-.322a1.43 1.43 0 0 1 .267-.064c.107.035.254.088.435.161zm2.397-1.875c-.097 0-.185-.005-.258-.015-.093-.107-.142-.17-.142-.19 0-.122.024-.23.078-.313a.518.518 0 0 1 .24-.2.834.834 0 0 1 .351-.082c.161 0 .282.053.366.16a.419.419 0 0 1 .083.24c0 .225-.083.361-.239.4h-.479zM32.51 25.613a.43.43 0 0 1 .323-.162c.156 0 .34.054.556.162-.2.384-.308.58-.318.59-.033.035-.181.05-.448.05a1.29 1.29 0 0 1-.225-.015.573.573 0 0 1 .112-.625zm4.921-2.515c.01 0 .02.024.03.063.044-.01.078-.029.098-.064.01-.01.092-.015.239-.015.16 0 .25.02.273.064l.029.064c-.126.225-.267.371-.429.435 0-.025-.078-.035-.24-.035l-.048-.269c0-.17.014-.254.048-.244zm-3.353 3.155c-.118.195-.22.272-.303.238-.079-.02-.137-.097-.176-.238.01-.054.054-.108.126-.162.045-.02.079-.035.112-.044.128.054.205.122.24.206zm-2.477.32a.538.538 0 0 1 .318.318.59.59 0 0 1-.318.323.447.447 0 0 1-.238-.21.456.456 0 0 1-.084-.239.957.957 0 0 1 .322-.191zm4.982-4.515c0-.162.023-.244.067-.254h.22c.108.029.225.112.351.239-.028.127-.146.235-.351.322 0-.024-.078-.034-.239-.034l-.048-.273zm1.78-1.778c.09.03.162.074.216.133-.083.243-.219.42-.415.527a.924.924 0 0 1-.331.126c-.197-.136-.29-.268-.29-.385 0-.079.016-.147.04-.205-.26-.058-.39-.255-.39-.596 0-.156.015-.269.048-.332a.79.79 0 0 0 .029-.147.762.762 0 0 0 .176-.112.834.834 0 0 1-.415.063c-.532-.02-.801-.297-.801-.83 0-.16.035-.317.098-.463.117-.303.352-.449.703-.449.288 0 .508.116.654.351.099.172.148.352.148.542 0 .36-.098.61-.3.737.07-.019.167-.029.3-.029.18 0 .336.078.477.239.127.137.191.279.191.415 0 .176-.043.318-.137.415zm-.067-3.135c.049-.195.215-.395.493-.61.288-.225.478-.336.576-.336.171 0 .347.21.527.625.03.087.06.165.08.238.092.254.14.47.145.636.113.053.21.13.283.228a.838.838 0 0 1 .148.484c0 .259-.07.454-.21.591v.049c0 .19-.133.381-.397.561-.205.128-.39.2-.561.225a.88.88 0 0 1-.161.015.167.167 0 0 1-.064-.015 4.065 4.065 0 0 1-.464-.195 1.362 1.362 0 0 1-.317-.24.76.76 0 0 1-.224-.21c.063-.21.21-.39.429-.541.074-.049.146-.094.22-.127-.01-.034-.01-.074-.01-.113 0 .03.035-.087.097-.351a.645.645 0 0 1 .108-.177h-.078c-.327-.087-.527-.166-.591-.243-.044-.029-.064-.146-.064-.351 0-.04.01-.09.035-.143zm3.32.113c0 .406-.195.606-.591.606-.405.014-.605-.197-.605-.625 0-.372.2-.558.605-.558.161 0 .299.054.415.162a.564.564 0 0 1 .176.415zm-3.389-3.72a.53.53 0 0 1 .352.15v.4a.575.575 0 0 1-.318.08.906.906 0 0 1-.492-.162 1.047 1.047 0 0 1-.157-.112c-.332-.084-.502-.235-.502-.449a2.55 2.55 0 0 0 .034-.366.92.92 0 0 0 .21-.143c.049-.034.156-.049.317-.049.162 0 .283.03.367.093l.112.099a.233.233 0 0 0 .049.126c.019.01.029.092.029.24v.092zm1.07.356c0-.162.02-.244.063-.254h.225c.082.019.176.102.274.239l-.084.24c-.072.034-.219.049-.429.049l-.048-.274zm-5.43.996a1.382 1.382 0 0 0-.322-.084 1.11 1.11 0 0 1 .161-.492c.118-.205.259-.308.43-.308.195 0 .341.054.449.162-.108.277-.185.458-.239.54-.073.123-.21.182-.401.182h-.078zm-1.552-7.013c-.21 0-.337-.008-.381-.018a.27.27 0 0 1-.215-.24.627.627 0 0 1-.123.064c-.19-.054-.297-.108-.317-.162a.205.205 0 0 0 .045-.126c.013-.02.102-.03.272-.03h.128c.015-.072.043-.121.082-.146.04-.02.133-.044.269-.064.269.074.41.2.435.366a.807.807 0 0 1-.195.357zm.674 1.68a.853.853 0 0 0 .205-.146c.053-.028.161-.048.321-.048a.61.61 0 0 1 .366.097l.113.097c.01.064.025.108.048.128.02.01.03.092.03.239 0 .405-.186.561-.557.463-.375-.082-.561-.238-.561-.463.025-.162.035-.283.035-.367z" fill="#C8964E"/><path d="M20.415 35.139a.883.883 0 0 0 .4-.323v-.015c.074.02.151.03.24.03.503.034.751-.205.751-.717a.831.831 0 0 0-.175-.548.742.742 0 0 0-.576-.239c-.156 0-.294.024-.401.064v-.093c0-.152-.009-.23-.029-.24-.025-.024-.039-.068-.049-.132l-.112-.092c-.083-.064-.21-.098-.366-.098-.162 0-.27.015-.323.049a.707.707 0 0 1-.205.141c0 .089-.01.21-.034.371 0 .226.185.377.561.464.074.02.142.025.2.025a.691.691 0 0 0-.01.279c0 .111.015.214.04.303-.117.048-.21.102-.278.16l-.015-.03c-.014.01-.019.098-.019.27 0 .17.049.278.146.322.054.02.136.039.254.049zM17.7 29.934c.533 0 .801-.264.801-.802a.811.811 0 0 0-.161-.478.735.735 0 0 0-.64-.322c-.351 0-.59.147-.717.434-.054.279-.083.402-.083.367 0 .537.268.8.8.8zm-4.721-5.923c-.303.024-.508.17-.615.434a1.262 1.262 0 0 0-.094.479c0 .532.264.811.796.835.454.025.718-.177.786-.61.01-.074.015-.152.015-.24 0-.131-.025-.259-.063-.375-.025-.059-.049-.118-.083-.171a.724.724 0 0 0-.655-.352h-.087zm4.721 3.92c.479 0 .718-.248.718-.751 0-.21-.098-.386-.303-.527a.719.719 0 0 0-.415-.162c-.361 0-.59.146-.689.435l-.028.303c0 .483.238.717.717.702zm-5.225-7.152c.084.018.171.034.274.034.532 0 .796-.27.796-.802a.85.85 0 0 0-.156-.482.74.74 0 0 0-.64-.318c-.332 0-.562.137-.698.405 0 .01 0 .015-.005.025-.063.278-.097.4-.097.37 0 .43.175.689.526.768zm3.179-1.539a.753.753 0 0 0 .127.176c.234.225.63.337 1.187.337.22 0 .43-.054.62-.162a.36.36 0 0 0-.014.099l.028-.113a1.487 1.487 0 0 0-.015-.688c-.053-.02-.112-.049-.174-.079-.343-.16-.62-.239-.846-.239-.235 0-.458.103-.673.318a1.014 1.014 0 0 0-.24.351zm13.662 9.615a.952.952 0 0 0-.273-.04c-.342 0-.577.142-.703.43-.064.279-.098.4-.098.371 0 .533.27.802.8.802.533 0 .797-.27.797-.802a.866.866 0 0 0-.044-.273 1.037 1.037 0 0 0-.113-.21.728.728 0 0 0-.366-.278zm5.528-8.155c-.034-.015-.069-.029-.098-.049-.479-.268-.855-.4-1.119-.4-1.542 0-2.318.595-2.318 1.791a.68.68 0 0 0 .097.353c.128.044.274.067.43.082.132 0 .323-.01.577-.02.692 0 1.283-.223 1.772-.668.366-.341.58-.708.659-1.089zm-6.758-7.72c.264-.103.395-.331.395-.688v-.063a.61.61 0 0 0-.282-.464.91.91 0 0 0-.514-.161c-.175 0-.321.029-.439.082.024-.092.039-.2.039-.322a.836.836 0 0 0-.141-.478c-.151-.215-.371-.322-.659-.322-.255 0-.45.082-.591.243a1.173 1.173 0 0 0-.113.19c-.063.28-.092.402-.092.367 0 .537.264.801.796.801a.98.98 0 0 0 .424-.077l-.005.077c-.283.02-.488.146-.61.386-.01.019-.019.044-.029.063-.064.268-.098.386-.098.352 0 .532.268.8.8.8.504 0 .772-.239.797-.717.122-.01.23-.029.322-.069zm-3.35-1.328a.584.584 0 0 0-.376.387l-.029.302c0 .483.239.718.718.708.479 0 .717-.254.717-.756v-.03c-.01-.2-.107-.367-.302-.498-.151-.107-.288-.161-.415-.161a1 1 0 0 0-.313.049zm-8.051 3.116a.907.907 0 0 0-.264-.04c-.337 0-.571.147-.704.45-.063.263-.092.38-.092.35v.095c.02.277.123.473.303.585-.064.053-.127.112-.19.166-.054.053-.084.092-.084.112 0 .151.005.23.02.244a.44.44 0 0 1 .064.113c.028 0 .117.01.253.03.162.01.313 0 .464-.03a2.68 2.68 0 0 0 .161-.357 1.012 1.012 0 0 0-.131-.156c.492-.024.736-.292.736-.801a.997.997 0 0 0-.038-.273c.048.014.112.024.2.034a.907.907 0 0 0 .396-.322.4.4 0 0 0-.094-.24.666.666 0 0 0-.302-.24 1.139 1.139 0 0 0-.372.192l-.014-.035c-.01.015-.014.103-.014.274v.015a.667.667 0 0 0-.298-.166zm12.28-8.203c.581 0 .874-.269.874-.801a.814.814 0 0 0-.156-.484c-.152-.21-.39-.317-.718-.317-.396 0-.664.15-.801.45-.054.263-.078.38-.078.35 0 .533.293.802.879.802zm8.481 12.724l.088-.049c.196-.126.294-.376.294-.737 0-.19-.044-.37-.143-.542a.727.727 0 0 0-.654-.351c-.351 0-.586.146-.703.449a1.177 1.177 0 0 0-.098.463c0 .533.269.81.801.83.166.01.303-.01.415-.063zm1.348-.767c.039.46.332.69.873.69.3 0 .523-.075.67-.21.137-.138.21-.333.21-.592 0-.18-.05-.341-.147-.484a.772.772 0 0 0-.288-.228 1.047 1.047 0 0 0-.445-.088c-.302 0-.522.088-.673.273a.805.805 0 0 0-.113.176c-.062.264-.092.381-.092.351 0 .039 0 .079.005.113z" fill="#7D652D"/><path d="M19.712 34.386a.662.662 0 0 0 .098-.336c-.117-.161-.235-.269-.352-.322-.18.043-.283.078-.303.097-.044.044-.064.161-.064.351 0 .171.03.284.094.338.014 0 .103.028.273.097a.61.61 0 0 0 .255-.225zM38.74 21.291a8.269 8.269 0 0 1-.175-.302.534.534 0 0 0-.259-.148c-.298.279-.445.43-.445.45 0 .127.01.22.029.274.069.146.206.2.416.156.142-.093.283-.24.434-.43zm1.016.2a.609.609 0 0 0-.171-.122c-.19.025-.322.079-.4.161.034.107.146.191.336.259.035.01.069.025.098.03a.675.675 0 0 0 .317.034l.049-.132a2.474 2.474 0 0 0-.229-.23zm-17.5 13.676c-.053-.072-.176-.126-.366-.156l-.049.094a.59.59 0 0 0-.064.273c.22 0 .382-.068.48-.21zm.639-.59c-.044-.127-.175-.224-.4-.288h-.225c-.044.01-.063.097-.063.253l.05.274c.155 0 .238.01.238.035.2-.035.337-.122.4-.273zm-.449-1.103c0 .234.23.371.689.415a.428.428 0 0 1 .205-.049c.044-.01.064-.103.064-.274 0-.146-.015-.229-.044-.239-.035-.01-.054-.048-.069-.112l-.079-.064c-.053-.039-.16-.064-.317-.064l-.321.084c0 .01-.03.024-.094.044-.024.015-.034.097-.034.259zm-3.857-1.48a.653.653 0 0 0-.215.166c-.019.02-.034.044-.049.064a.39.39 0 0 0-.274-.098c-.018-.038-.034-.063-.043-.063-.044-.01-.068.073-.068.238 0 .161.024.259.067.289.01.015.025.02.044.02h.21l.162-.24-.01-.01c.05-.009.112-.024.2-.039.117-.023.196-.058.24-.112a.388.388 0 0 0-.123-.195.196.196 0 0 0-.067-.044c-.026.005-.05.015-.074.024zm-1.284-.508l.156-.112c-.107-.083-.284-.136-.527-.156l-.03.078a.57.57 0 0 0-.049.239c.201 0 .352-.015.45-.049zm.83-1.601c0 .087-.01.21-.035.371 0 .224.186.377.563.464.37.098.556-.059.556-.464 0-.151-.01-.23-.029-.24-.025-.023-.04-.062-.05-.131l-.111-.093a.616.616 0 0 0-.366-.097c-.162 0-.27.014-.323.049a.725.725 0 0 1-.205.141zm-5.943-2.51a1.184 1.184 0 0 0-.56-.449c-.3.254-.446.405-.446.449 0 .146.005.23.015.239.02.02.044.058.064.112.029 0 .121.005.269.015.185-.01.375-.053.576-.127l.083-.239zm-.136-3.051c.132-.02.268-.059.405-.118a.34.34 0 0 0-.191-.244 1.176 1.176 0 0 1-.16.034.631.631 0 0 0-.176.098l-.03.028v.21c.049 0 .098-.003.152-.008zm3.999 3.965l-.015-.035c-.01.01-.015.092-.015.248v.026c0 .17.049.278.143.317a.891.891 0 0 0 .258.049c.21-.084.341-.19.395-.318a.409.409 0 0 0-.092-.244.715.715 0 0 0-.303-.24 1.04 1.04 0 0 0-.371.197zm-4.585-5.045h-.22c-.044.01-.064.097-.064.253l.044.274c.161 0 .24.01.24.035.205-.088.322-.196.351-.322-.127-.128-.243-.21-.351-.24zm-4.536-1.235c-.01.015-.015.102-.015.273 0 .172.049.278.141.323.054.019.143.034.259.049.263-.269.411-.42.43-.45-.01-.014-.014-.029-.024-.039.034-.015.068-.024.103-.044a.331.331 0 0 0-.192-.238c-.043.008-.092.023-.161.033h-.004a.447.447 0 0 0-.152-.064c-.16.054-.283.118-.367.19l-.018-.033zm-.64-.064a.873.873 0 0 0 .097-.175 1.767 1.767 0 0 0-.428-.317c-.153-.08-.23-.118-.24-.133-.298.259-.45.41-.45.45 0 .151.006.229.014.239a.283.283 0 0 1 .064.112c.035 0 .123.015.274.034.19.01.395 0 .605-.034 0-.038.025-.097.064-.176zm1.025-1.294c-.054-.087-.205-.141-.449-.161l-.029.079a.574.574 0 0 0-.048.244c.17 0 .346-.054.526-.162zm3.785-.371c-.348.015-.586.156-.718.435-.053.259-.079.361-.079.313 0 .376.28.57.83.58.513 0 .787-.24.816-.717v-.078c0-.226-.078-.377-.224-.45-.118-.053-.313-.083-.576-.083h-.05zm7.143 3.506c.063.151.2.21.416.176.136-.093.277-.24.428-.43a17.534 17.534 0 0 1-.175-.302.481.481 0 0 0-.253-.148c-.3.28-.45.43-.45.45 0 .127.01.215.034.254zm8.897 5.205l-.015.015v.01c.181.293.342.439.479.439a.59.59 0 0 0 .317-.322c-.02-.063-.084-.132-.19-.206a.564.564 0 0 0-.289-.112.911.911 0 0 0-.302.176zm-4.009 1.538h-.01a.964.964 0 0 0-.264.064c-.064.04-.097.146-.097.317s.044.274.131.308c.04.02.122.03.24.03a.749.749 0 0 0 .351-.318c-.01-.122-.044-.205-.097-.259a.651.651 0 0 0-.254-.142zm5.351 1.485c-.044-.118-.176-.22-.4-.318a.924.924 0 0 0-.317.19c0 .079.024.156.077.24a.455.455 0 0 0 .24.21c.215-.084.347-.191.4-.322zm-5.991-9.332c-.151 0-.234.01-.254.034-.034.054-.073.084-.112.094-.078.078-.113.234-.113.483.147.063.318.083.509.063.249-.024.424-.112.526-.274-.116-.267-.302-.4-.556-.4zm-2.603-1.362a.623.623 0 0 0 .543-.014c.082-.045.249-.152.492-.337a1.064 1.064 0 0 0-.126-.269c-.063-.117-.191-.175-.381-.175l-.449.078a.513.513 0 0 0-.112.078c-.035.034-.049.131-.049.288 0 .151.005.23.014.243.025.02.045.06.068.108zm9.678 1.797c.161.01.317 0 .464-.035.107.108.161.03.161-.238 0-.152-.005-.23-.014-.239-.035-.01-.053-.049-.069-.113a1.658 1.658 0 0 0-.43-.21c-.297.26-.443.405-.443.45 0 .15.005.23.014.24.02.023.044.057.063.11.03 0 .118.01.254.035zm-3.53-1.06a.627.627 0 0 0-.161-.4c-.103-.137-.22-.204-.352-.204-.253 0-.453.077-.605.238-.107.118-.16.235-.16.352 0 .425.213.634.638.625.43 0 .64-.206.64-.61zm1.119-.224a.932.932 0 0 0 .449.098c.532 0 .796-.268.796-.801a.884.884 0 0 0-.157-.479.733.733 0 0 0-.64-.322c-.342 0-.576.151-.703.45a5.563 5.563 0 0 1-.088.326l-.01.025c0 .351.118.586.353.703zm2.362-7.603c.377.099.561-.058.561-.464 0-.151-.008-.229-.033-.239a.27.27 0 0 1-.044-.127l-.113-.098a.62.62 0 0 0-.37-.097c-.157 0-.264.02-.318.049a.776.776 0 0 1-.21.146c0 .084-.009.205-.029.366 0 .225.185.382.556.464zM28.38 6.882a.231.231 0 0 1-.054.034c0 .019-.01.069-.034.141-.03.064-.044.177-.044.338 0 .205.063.361.19.474a.543.543 0 0 0 .527.103c.211-.05.465-.192.752-.416a.95.95 0 0 0-.082-.479.469.469 0 0 0-.064-.107c-.126-.166-.356-.244-.684-.244-.161 0-.272.014-.336.044a.713.713 0 0 1-.171.113zm2.133.112c.108.107.162.03.162-.239 0-.151-.015-.249-.049-.303a.822.822 0 0 1-.064-.176 1.741 1.741 0 0 0-.4-.161c-.297.279-.445.425-.445.45 0 .126.064.249.191.366.162.151.362.17.605.063zm-2.753-.039a.66.66 0 0 0 .117-.136.528.528 0 0 0 .131-.338l-.4-.077c-.117.01-.2.019-.238.034-.054.02-.084.117-.084.288 0 .157.054.254.161.288.054.02.108.029.162.029a.517.517 0 0 0 .15-.088zm-4.194 4.922a.436.436 0 0 0-.274-.317.489.489 0 0 0-.284.205c.04.234.162.351.367.351l.191-.239zm-1.836.562l-.162.239c.02 0 .07.01.147.034.102.01.235-.03.381-.112-.054-.079-.176-.133-.366-.161zm2.177-2.896c-.141.142-.215.25-.215.317 0 .191.064.322.19.386l.02.005c.118.049.313.044.591-.005 0-.025.014-.049.05-.082.018-.03.028-.128.028-.289 0-.171-.029-.284-.093-.332-.068-.044-.112-.078-.146-.098a.787.787 0 0 0-.24-.082 2.578 2.578 0 0 0-.185.18zm4.722 2.24a.65.65 0 0 0 .337.095.713.713 0 0 0 .161-.24.7.7 0 0 0-.24-.19c-.195.018-.326.072-.4.156 0 .054.049.112.142.18zm-9.458 3.458l-.03-.21c-.034-.043-.141-.064-.321-.064-.171 0-.269.01-.304.03a.496.496 0 0 1-.093.132c.074.235.284.351.636.351a.674.674 0 0 0 .112-.239zm0 .802c-.01-.118-.039-.205-.093-.26a.687.687 0 0 0-.258-.142.95.95 0 0 0-.269.064.146.146 0 0 0-.064.092 1.35 1.35 0 0 0-.307-.028c-.166 0-.269.01-.303.028a1.437 1.437 0 0 0-.176-.077c-.297.254-.444.405-.444.449 0 .146.005.23.014.24.02.018.045.057.064.111.03 0 .097 0 .21.01-.298.044-.449.23-.449.552 0 .425.2.64.605.64.396 0 .591-.21.591-.626a.544.544 0 0 0-.191-.415.558.558 0 0 0-.351-.161 2.08 2.08 0 0 0 .43-.111l.074-.215c.067-.01.136-.025.21-.04.018.093.057.152.116.176.043.02.122.03.24.03a.706.706 0 0 0 .351-.317zm1.167-.914c.16 0 .24.01.24.03.204-.084.322-.192.35-.318-.126-.132-.243-.21-.35-.24h-.226c-.038.01-.063.094-.063.254l.05.274zm-1.084-3.443a7.986 7.986 0 0 1-.175-.302c-.054-.069-.143-.113-.26-.146-.298.278-.444.425-.444.448 0 .128.01.22.03.274.062.146.205.2.415.156.141-.092.282-.239.434-.43zm15.176-3.139v-.112c0-.146-.015-.25-.049-.303a.619.619 0 0 1-.064-.176 4.3 4.3 0 0 0-.479-.112c-.053.043-.102.082-.146.122-.225.19-.331.293-.331.313 0 .18.034.307.106.38.143.151.435.181.88.098l.049-.05c.014-.013.029-.067.034-.16zm-19.17 7.573a7.398 7.398 0 0 0-.435-.161 1.43 1.43 0 0 0-.268.064c-.063.043-.098.15-.098.322l.048.254c.201.064.445.029.719-.113.024-.082.034-.205.034-.366zM31.6 26.574a.957.957 0 0 0-.322.191c0 .072.03.156.084.239a.447.447 0 0 0 .238.21.59.59 0 0 0 .318-.323.538.538 0 0 0-.318-.317zm2.477-.322c-.036-.083-.113-.15-.24-.204-.034.008-.068.023-.113.043-.072.054-.116.108-.126.162.039.14.097.218.176.238.083.034.185-.043.303-.238zm3.353-3.154c-.033-.01-.048.073-.048.243l.048.269c.162 0 .24.01.24.035.162-.064.303-.21.429-.435l-.029-.064c-.023-.044-.112-.064-.273-.064-.147 0-.23.005-.24.015-.02.035-.053.054-.097.064-.01-.039-.02-.064-.03-.064zm-.848-1.04l.048.273c.161 0 .239.01.239.034.205-.087.323-.195.351-.322-.126-.127-.243-.21-.351-.24h-.22c-.044.01-.067.093-.067.255zm.95-2.818l-.087.049a.762.762 0 0 1-.176.112.79.79 0 0 1-.029.146c-.033.064-.048.177-.048.333 0 .341.13.538.39.596.078.014.166.019.263.014.235-.019.41-.087.518-.21.094-.098.137-.239.137-.415 0-.136-.063-.277-.191-.415-.141-.161-.297-.239-.477-.239-.133 0-.23.01-.3.029zm4.083-1.982a.564.564 0 0 0-.176-.415.589.589 0 0 0-.415-.162c-.405 0-.605.186-.605.558 0 .428.2.633.605.625.396 0 .591-.2.591-.607zm-4.004-3.364a.25.25 0 0 0 .06.02c.346.087.53-.04.556-.377v-.092c0-.148-.01-.23-.03-.24a.233.233 0 0 1-.048-.126l-.112-.099c-.084-.063-.205-.093-.367-.093-.161 0-.268.015-.317.05a.92.92 0 0 1-.21.142c0 .087-.01.21-.034.366 0 .214.17.365.502.449zm1.69 0l.044.274c.214 0 .362-.015.434-.05l.079-.24c-.094-.136-.187-.22-.269-.238h-.225c-.044.01-.064.092-.064.254zm-6.313-4.337c0 .084-.01.205-.03.367 0 .225.186.381.556.463.376.098.563-.058.563-.463 0-.146-.01-.229-.036-.239a.313.313 0 0 1-.048-.128l-.108-.097a.62.62 0 0 0-.371-.098c-.155 0-.263.02-.316.05a.796.796 0 0 1-.21.145zm-.67-1.68a.842.842 0 0 0 .191-.356c-.02-.166-.166-.292-.43-.366-.136.02-.23.044-.274.064-.039.025-.062.074-.077.146H31.6c-.17 0-.264.01-.273.03a.183.183 0 0 1-.05.126c.026.054.128.108.323.162a.582.582 0 0 0 .118-.064c.02.127.092.205.215.24.043.01.171.019.385.019z" fill="#584F2E"/><path d="M15.625 15.623v-.094c0 .03.029-.088.092-.351.133-.303.362-.45.704-.45.098 0 .185.016.264.04.18-.226.341-.48.488-.762.04-.074.073-.171.112-.289.064-.22.128-.512.19-.878.074-.479.186-.81.337-.992.098-.13.298-.425.605-.883l-.005-.005h.006c.005-.005.005-.01.01-.01a56.961 56.961 0 0 0 1.708-1.392c.192-.058.402-.112.63-.16 1.129-.225 1.875-.42 2.237-.59.352-.172.796-.67 1.328-1.49.508-.792 1.055-1.28 1.627-1.476.13-.048.297-.175.507-.38a2.525 2.525 0 0 1-.107-.259c0-.092.023-.17.063-.24l-.112-.11c-.21.204-.464.35-.748.428-.639.186-1.268.63-1.885 1.348-.682.79-1.225 1.274-1.63 1.454-.063.03-.191.074-.391.138-.356.117-.928.287-1.719.522-.683.2-1.176.518-1.483.943-.44.595-.787 1.143-1.04 1.63a11.144 11.144 0 0 0-.796 2.13 2.622 2.622 0 0 1-.577 1.025c-.234.259-.576.527-1.025.82-.235.136-.591.249-1.07.333-.479.087-.815.19-1.005.307-.801.523-1.393.889-1.772 1.104-.415.224-.807.38-1.183.477-.22.054-.434.084-.639.099h-.063c-1.632.088-2.95.713-3.945 1.87-.822.951-1.285 2.075-1.403 3.374l-.014.215a2.465 2.465 0 0 0-.23.415.602.602 0 0 0-.063.238c0 .108.02.226.063.352.01.063.03.132.064.196.01.595.308 1.225.894 1.889.175.196.38.401.605.606.522.107 1.334.488 2.431 1.137.978.577 1.772.962 2.379 1.153.126.034.312.073.541.121.469.094 1.147.207 2.031.343 1.202.254 1.944.635 2.223 1.137.185.347.376.679.566.992a18.6 18.6 0 0 0 1.411 2.074c.341.42.674.787 1.005 1.094 1.037.958 2.198 1.573 3.491 1.841.51.108 1.04.162 1.593.162.469 0 .869-.054 1.215-.162.245-.078.46-.186.635-.317.279-.21.776-.684 1.495-1.426.244-.166.492-.342.751-.528.381-.146.869-.229 1.46-.239.991-.024 1.67-.17 2.031-.448.767-.611 1.46-1.836 2.075-3.683.152-.492.572-.922 1.265-1.298.416-.224 1.007-.46 1.773-.703.415-.143.869-.581 1.358-1.329.253-.395.6-.942 1.04-1.635.18-.235.668-.65 1.47-1.245.732-.645 1.122-1.295 1.16-1.954.036-.59.264-1.122.69-1.6.18-.216.624-.607 1.328-1.173.956-.767 1.553-1.607 1.787-2.529.107-.113.205-.205.288-.289.044-.038.078-.077.113-.107.044-.107.082-.209.126-.308l-.029-.254a.511.511 0 0 0-.386-.072c-.024 0-.044.005-.064.009v-.019a.163.163 0 0 0-.034-.03 1.108 1.108 0 0 0-.366-.111h-.175c-.088-.079-.186-.162-.278-.25-.044.005-.084.01-.123.01 0 .074-.01.171-.039.293.039.024.078.05.113.073.092-.005.151.03.175.098l.015.03c.141.097.284.195.425.287-.098.128-.195.249-.298.371-.03.454-.137.85-.327 1.192a2.204 2.204 0 0 1-.205.312 3.233 3.233 0 0 1-.513.479 9.163 9.163 0 0 1-.766.546 8.49 8.49 0 0 0-.665.494 148.481 148.481 0 0 1-1.47 1.747 6.266 6.266 0 0 0-.219.44c.063.054.142.131.229.23l-.049.131a.675.675 0 0 1-.317-.033c-.029.077-.054.161-.083.239-.025.087-.053.18-.078.273-.18.649-.596 1.207-1.245 1.665-.62.439-.977.923-1.07 1.455-.078.395-.488.81-1.23 1.25-.47.244-.85.444-1.152.6-.25.138-.445.24-.576.313a7.027 7.027 0 0 0-.571.366c-.386.396-.768.773-1.139 1.129-.282.38-.546.805-.781 1.273-.009.025-.024.044-.034.064-.649 1.324-1.323 2.193-2.026 2.613-.323.176-.82.336-1.504.479-.127.023-.269.053-.415.077-.23.039-.44.089-.63.146-.479.333-.933.621-1.358.855-.404.377-.712.62-.917.748-.532.326-1.152.492-1.856.492a7.814 7.814 0 0 1-2.905-.556c-.991-.386-1.763-.917-2.314-1.601-.069-.089-.196-.308-.376-.66a76.465 76.465 0 0 1-.968-1.983c-.458-.971-1.156-1.557-2.093-1.762-2.618-.595-4.537-1.158-5.753-1.68-.85-.37-1.577-.782-2.178-1.24a12.828 12.828 0 0 1-.913-1.015c-.434-.558-.654-1.002-.659-1.329l-.074.015v-.01a4.989 4.989 0 0 1-.087-.953c0-.346.025-.682.079-1 .19-1.167.727-2.125 1.614-2.87a5.273 5.273 0 0 1 2.492-1.178c.223-.044.458-.073.702-.088.176-.01.356-.02.543-.02.702 0 1.406-.213 2.108-.653.372-.234.87-.552 1.486-.943a21.101 21.101 0 0 1 1.933-.689c.014-.005.024-.014.034-.018z" fill="#E0C28D"/><path d="M4.721 24.035v.01l.074-.015-.074.005zm7.261 6.7l-.194-.094c.14.094.287.192.448.289a47.54 47.54 0 0 0 2.144 1.265c-1.46-.899-2.261-1.387-2.398-1.46z" fill="#F2CF8D"/><path d="M18.73 32.014h.04c.224 0 .439-.103.639-.318-.264-.269-.493-.4-.688-.4a.293.293 0 0 0-.191.078c-.108.079-.161.196-.161.352 0 .068.01.137.02.209.069.025.136.045.2.059.025-.009.044-.019.069-.024.028.01.053.024.072.044zm-2.71-3.512c.005-.156.01-.238.02-.248l.015.035v-.514h-.801a.505.505 0 0 0-.156.353c0 .126.01.204.03.238.043.064.156.128.336.19.141-.009.327-.029.556-.053zm-2.168-3.353a3.9 3.9 0 0 0 1.597-.499c.562-.307.888-.669.972-1.089a.907.907 0 0 0 .034-.253c0-.523-.225-.918-.674-1.187-.371-.235-.825-.351-1.357-.351-.733 0-1.294.116-1.675.351a1.437 1.437 0 0 0-.513.464v.034l-.015-.014c-.215.326-.321.761-.321 1.294a.76.76 0 0 0 .034.195.566.566 0 0 1 .176-.098c.063-.01.116-.02.16-.034.094.044.156.127.191.244a1.65 1.65 0 0 1-.41.118c.063.097.146.205.249.321a.87.87 0 0 1 .064-.2c.107-.264.312-.41.615-.434a1.515 1.515 0 0 1-.118-.557.24.24 0 0 1-.049-.034l.05-.049c0-.44.185-.786.556-1.04.307-.215.67-.322 1.07-.322.483 0 .845.136 1.088.4.215.225.318.532.318.914 0 .194-.044.376-.142.546a1.504 1.504 0 0 1-.513.494c-.513.268-.952.327-1.323.176-.043 0-.079-.005-.112-.005.038.116.063.244.063.375 0 .088-.005.166-.015.24zm-5.835.302c.098 0 .19-.005.274-.015a.979.979 0 0 0 .415-.141c.215-.131.318-.308.318-.533 0-.395-.186-.59-.558-.59-.17 0-.385.054-.638.16-.318.128-.48.274-.48.43 0 .08.132.27.4.577.138.079.23.112.27.112zm4.034-5.835c-.02-.005-.045-.005-.069-.005-.16 0-.346.079-.56.24-.21.146-.318.283-.318.4v.029h.049c.263 0 .453.03.57.084.152.072.226.223.226.448v.08h.034c.127 0 .282-.026.463-.08l.015-.02a.072.072 0 0 0 .014-.013c-.351-.079-.526-.338-.526-.768 0 .03.034-.092.097-.37a.045.045 0 0 0 .005-.025zm5.536-.727a1.192 1.192 0 0 0-.287-.494c-.2-.224-.425-.336-.669-.336-.259 0-.645.146-1.167.444l-.015.02a6.59 6.59 0 0 0-1.181.878c.317.162.747.381 1.293.655.118.054.235.098.351.131l-.018-.097c-.21-.128-.318-.302-.318-.527a.71.71 0 0 1 .078-.323c.045-.117.122-.234.24-.351.215-.215.438-.318.673-.318.226 0 .503.079.846.239.062.03.12.059.174.079zM30 28.333a1.02 1.02 0 0 1-.4.136c-.191.107-.284.235-.284.376v.01a.728.728 0 0 1 .367.277c.048.07.082.138.112.21.107-.028.185-.048.22-.063.331-.142.497-.39.497-.752 0-.078-.01-.122-.033-.146-.03-.01-.044-.025-.044-.049H30zm-2.636-3.487l-.094.063c0-.088-.009-.175-.034-.273a2.387 2.387 0 0 0-.479-.498c-.595-.444-1.552-.67-2.876-.67-.487 0-1.02.07-1.596.206a7.113 7.113 0 0 0-1.773.659c-.956.503-1.577 1.123-1.855 1.87a2.802 2.802 0 0 0-.176.996c0 1.011.679 1.861 2.031 2.545a8.18 8.18 0 0 0 1.74.625c.312.072.6.126.873.16h.005c.239.03.464.045.674.045.64 0 1.104-.01 1.386-.03a4.425 4.425 0 0 0 1.075-.625c.346-.269.635-.572.859-.903v-.01l.02-.015c.082-.131.161-.264.229-.4-.273-.112-.405-.356-.405-.737l.015-.039a1.06 1.06 0 0 1-.24-.148c-.078.02-.165.025-.258.025h-.02c-.21.48-.566.88-1.065 1.202-.737.484-1.64.722-2.715.722-.776 0-1.415-.238-1.919-.722a2.216 2.216 0 0 1-.683-1.329 2.196 2.196 0 0 1-.034-.4c0-.894.4-1.547 1.196-1.953.522-.263 1.137-.4 1.841-.4.434 0 1.054.053 1.85.16.054.01.113.015.177.015.087.01.18.024.287.034l-.287-.014c.146.04.277.088.4.142.078-.01.166-.015.253-.015.205 0 .382.025.528.069a.762.762 0 0 1-.049-.264c0-.172.039-.264.113-.289.053-.009.204-.009.448 0 .074.054.166.166.269.338.108.16.161.263.161.307 0 .156-.01.254-.029.287-.035.03-.048.05-.048.064a1.6 1.6 0 0 1-.415-.072c.038.102.062.223.062.361v.054c.113-.04.245-.054.401-.054.103 0 .2.014.293.054.01-.03.02-.064.025-.103a.693.693 0 0 1 .136-.21 3.237 3.237 0 0 0-.297-.83zm-1.324 7.329c-.054-.054-.082-.133-.082-.24h-.48c-.053.054-.293.161-.717.323 0 .053.009.117.034.19.146.083.244.127.287.127a.29.29 0 0 0 .08-.015c.01 0 .023-.004.048-.014h.015c.098-.025.224-.063.385-.132.245-.103.386-.185.43-.239zM30 25.07c.128.04.435.064.913.064.586 0 .88-.177.88-.528a.658.658 0 0 0-.24-.512c-.18-.162-.425-.244-.723-.244a3.934 3.934 0 0 0-.479.244c-.317.19-.479.376-.479.556 0 .143.015.264.05.371.02.02.05.035.078.049zm-10.351-2.979c.01.01.018.015.034.015.18.108.41.21.683.303.269 0 .454-.054.561-.156a.679.679 0 0 0-.16-.4c-.083-.108-.18-.162-.288-.162-.039 0-.181.059-.415.177-.235.107-.372.18-.415.223zm6.66-3.379l-.079-.028c.035-.025.069-.044.113-.069.053-.19.078-.405.078-.639 0-.65-.332-1.241-1.006-1.777-.712-.563-1.557-.845-2.539-.845-.776 0-1.396.112-1.851.331a2.207 2.207 0 0 0-.336.21c-.459.343-.689.84-.689 1.49 0 .927.254 1.601.766 2.016.397.323 1.148.607 2.252.85 1.055-.035 1.854-.2 2.397-.498.449-.234.748-.58.894-1.04zm-.333.015l.015.083-.19.094c-.205.17-.44.326-.703.468a1.517 1.517 0 0 1-.113.044 4.21 4.21 0 0 1-1.709.351c-1.46 0-2.187-.663-2.187-1.997 0-.287.069-.556.205-.8.161-.279.41-.517.752-.723a3.285 3.285 0 0 1 1.709-.478c.498 0 1.05.263 1.645.801.586.521.879.986.879 1.391 0 .172-.029.323-.078.449v.015c-.069.107-.141.21-.225.302zm8.624.753l-.044.082a1.256 1.256 0 0 0-.786-.483.313.313 0 0 0-.089-.014h-.005a1.003 1.003 0 0 1-.161.014 2.95 2.95 0 0 0-1.689.674c-.566.46-.85.99-.85 1.602 0 .308.035.59.098.849.063.245.147.468.253.668.153.07.313.133.5.197.712.264 1.132.4 1.26.4.414 0 .82-.059 1.214-.177.084-.097.161-.205.24-.32a3.92 3.92 0 0 0 .415-.866c-.127.215-.332.396-.61.548-.478.264-1.05.4-1.723.4-.215 0-.464-.083-.753-.244-.21-.117-.366-.254-.464-.415a.676.676 0 0 1-.092-.352c0-1.197.771-1.792 2.313-1.792.27 0 .64.131 1.12.4.033.02.063.034.097.049a1.42 1.42 0 0 0 .015-.21c.072.084.136.195.19.338a.873.873 0 0 0 .146.112v-.353c0-.32-.166-.658-.498-1.01l-.092-.097H34.6zm-7.441 2.352c-.235-.116-.353-.35-.353-.702l.01-.025c-.146.099-.22.186-.22.264 0 .097.04.205.113.322.156.079.302.123.45.142zm1.455-4.672a3.355 3.355 0 0 1-.274-.175c-.215.106-.459.239-.738.4.098.532.392.922.88 1.166.43-.018.816-.067 1.167-.141h-.015a.967.967 0 0 1-.128-.113c-.233-.19-.41-.34-.526-.448-.259-.225-.386-.41-.386-.561 0-.04.005-.084.02-.128zm-2.32-4.609c.122-.24.327-.366.61-.386l.005-.077a.98.98 0 0 1-.424.077c-.532 0-.796-.264-.796-.801 0 .035.029-.088.092-.367.034-.072.074-.136.113-.19a2.808 2.808 0 0 1-.176-.898.271.271 0 0 1-.044-.063l.044-.049c0-.522.268-.987.8-1.392.488-.376.997-.561 1.52-.561.136 0 .268.01.4.025-.132-.113-.195-.269-.195-.474a.86.86 0 0 1 .048-.337.606.606 0 0 0 .034-.142c.015-.01.035-.02.054-.034-.19.01-.4.034-.62.073a.483.483 0 0 1-.157.088.451.451 0 0 1-.156-.03c-.054.006-.107.02-.161.03a7.448 7.448 0 0 0-1.532.527 4.905 4.905 0 0 0-.802.45 3.667 3.667 0 0 0-.205.161c-.483.39-.761.844-.84 1.362.054-.058.113-.117.185-.18a.84.84 0 0 1 .24.082l.142.098c.063.048.097.16.097.332 0 .161-.01.259-.034.289-.03.034-.049.057-.049.082-.273.049-.468.054-.59.005.014.195.043.357.083.474.063.234.195.454.4.659.078.073.195.161.356.268a1 1 0 0 1 .313-.048c.127 0 .264.054.415.161.195.131.292.297.302.497.162.093.338.187.528.29zm.127-7.588a.467.467 0 0 0-.063.24c0 .01.033.092.107.258.01.029.024.059.039.093.225.087.371.127.445.127a.806.806 0 0 0 .37-.079c.05-.19.079-.35.079-.478 0-.215-.103-.341-.313-.385a.82.82 0 0 0-.166-.015.655.655 0 0 0-.323.077.488.488 0 0 0-.175.162zm-8.77 9.282h.479c.161-.039.239-.175.239-.4a.412.412 0 0 0-.078-.24c-.084-.107-.205-.16-.366-.16a.834.834 0 0 0-.351.082.518.518 0 0 0-.323.513c0 .02.049.083.146.19.074.01.162.015.254.015zM32.51 25.613a.573.573 0 0 0-.112.625c.053.01.127.015.224.015.264 0 .416-.015.444-.05.015-.01.118-.206.323-.59-.215-.108-.4-.162-.562-.162a.413.413 0 0 0-.317.162zm5.073-5.137a.455.455 0 0 0-.044.205c0 .116.097.249.288.385a.985.985 0 0 0 .337-.126.915.915 0 0 0 .415-.527.536.536 0 0 0-.215-.133c-.111.122-.283.191-.518.21a1.18 1.18 0 0 1-.263-.014zm2.755-1.475c-.148.136-.372.21-.67.21-.542 0-.835-.23-.874-.688a2.011 2.011 0 0 0-.215.127c-.224.151-.367.331-.429.541a.76.76 0 0 0 .224.21c.092.098.2.177.317.24.054.034.21.098.464.195.02.01.044.015.064.015a.88.88 0 0 0 .161-.015c.171-.025.356-.097.556-.225.269-.18.401-.371.401-.561v-.049zm-2.11-5.464c-.03.337-.215.464-.557.377a.25.25 0 0 1-.059-.02.991.991 0 0 0 .152.112.935.935 0 0 0 .497.162.575.575 0 0 0 .318-.08v-.4a.53.53 0 0 0-.352-.15zm-4.355 1.353h.077c.19 0 .328-.059.4-.181.054-.083.133-.264.24-.541-.108-.108-.259-.162-.45-.162-.17 0-.313.103-.429.308a1.11 1.11 0 0 0-.161.492c.054 0 .161.03.323.084z" fill="#CAAC6E"/><path d="M6.519 24.011c.532 0 .796-.264.796-.801a.866.866 0 0 0-.156-.479.735.735 0 0 0-.64-.322c-.343 0-.577.151-.704.45-.063.268-.098.385-.098.351 0 .537.27.801.802.801zM29.6 28.47a1.02 1.02 0 0 0 .4-.137c.215-.132.323-.342.323-.64 0-.512-.323-.776-.963-.8.532 0 .801-.264.801-.8a.861.861 0 0 0-.146-.48c-.146-.214-.366-.317-.655-.317-.282 0-.492.102-.63.307a.795.795 0 0 0-.488-.15c-.248 0-.445.077-.58.224a.693.693 0 0 0-.137.21.535.535 0 0 1-.025.103.724.724 0 0 0-.293-.054c-.156 0-.288.014-.4.054v-.054a.92.92 0 0 0-.063-.361 1.6 1.6 0 0 0 .415.072c0-.014.014-.034.049-.064.018-.033.028-.13.028-.287 0-.044-.053-.146-.161-.308-.102-.17-.195-.283-.269-.337a3.453 3.453 0 0 0-.448 0c-.074.025-.113.117-.113.289 0 .097.02.185.049.264a1.85 1.85 0 0 0-.528-.07c-.087 0-.175.006-.253.016-.332.049-.562.19-.69.433-.062.264-.092.382-.092.353 0 .523.333.791 1.006.8-.034.128-.048.181-.048.156 0 .22.044.392.126.523.127.181.342.273.65.278h.02c.093 0 .18-.005.259-.024.067.058.146.102.239.147l-.015.039c0 .381.132.625.404.737.108.044.24.063.392.063.366 0 .605-.127.717-.375.176.141.44.215.801.215.118 0 .22-.005.318-.025zm-1.358-1.417c.308 0 .523-.087.654-.263a.883.883 0 0 0 .386.102c-.468 0-.78.138-.932.41-.035-.034-.069-.067-.108-.097v-.054c0-.034 0-.063-.005-.098h.006z" fill="#635023"/><path d="M28.325 2.78l.015-.049c-.025-.018-.044-.038-.064-.058-.097.053-.195.107-.302.16v-.4c-.098.006-.22.034-.361.088-.044.02-.088.035-.138.059-.024.01-.053.025-.088.039.015.01.035.02.05.035a6.281 6.281 0 0 0-.318.732c-.059.136-.113.283-.17.439-.157.44-.372.776-.64 1.026l.112.112a.488.488 0 0 1 .175-.162.714.714 0 0 1 .323-.077.82.82 0 0 1 .166.015c.098-.118.195-.245.297-.381.226-.308.41-.582.558-.82.2-.318.326-.572.385-.758zM9.283 17.61h.063l-.035-.035a.215.215 0 0 1-.028.035z" fill="#DDBF79"/><path d="M4.649 26.159c-.587-.664-.884-1.294-.894-1.889a.632.632 0 0 1-.064-.196 1.074 1.074 0 0 1-.063-.352c0-.063.02-.14.063-.238.049-.118.128-.254.23-.415l.014-.215c.118-1.299.581-2.423 1.403-3.374.994-1.157 2.308-1.782 3.945-1.87.01-.01.018-.02.028-.035l.035.035c.205-.015.419-.045.639-.099a5.293 5.293 0 0 0 1.183-.477c.38-.215.97-.581 1.772-1.104.19-.117.526-.22 1.005-.307.479-.084.835-.197 1.07-.333.449-.292.791-.561 1.025-.82.274-.308.469-.65.576-1.025.142-.533.313-1.036.508-1.495.088-.22.186-.43.289-.635.253-.487.6-1.035 1.04-1.63.307-.425.8-.742 1.483-.943a73.582 73.582 0 0 0 1.719-.522c.2-.064.328-.107.391-.138.405-.18.948-.663 1.63-1.455.617-.717 1.247-1.16 1.885-1.347.284-.078.538-.224.748-.429.268-.25.483-.591.64-1.026.057-.156.111-.303.17-.439a6.82 6.82 0 0 1 .317-.737c-.014-.01-.034-.02-.049-.03a.517.517 0 0 0 .088-.044c.05-.019.094-.039.137-.054.142-.054.264-.082.362-.087-.01-.142-.025-.289-.034-.449-.005-.074-.005-.143-.005-.21A13.278 13.278 0 0 1 27.91.27l-.351-.19c-.093.03-.181.064-.274.097C27.1.06 26.821.004 26.44.004c-.693 0-1.611.248-2.749.75-1.01.513-1.523.767-1.532.767-.611-.106-.983-.16-1.119-.16-1.065 0-2.095.282-3.086.849a6.265 6.265 0 0 0-2.216 2.115c-.128.185-.236.346-.323.477-.185.274-.287.43-.317.465a3.324 3.324 0 0 1-1.118.898c-.469.225-1.104.366-1.905.43-.361.015-.63.025-.805.034-.327.15-.65.298-.967.45-.903.54-1.837 1.117-2.793 1.728-.332.205-.865.367-1.592.478-.18.03-.375.058-.58.079-1.144.13-1.827.238-2.062.322-1.079.405-1.885 1.45-2.431 3.139-.097.312-.181.63-.254.952C.195 14.744 0 16.101 0 17.85c0 1.529.65 3.281 1.949 5.268.971 1.48 1.87 2.495 2.7 3.042zm8.212-2.788v.083c.118.063.249.127.395.191.548.224 1.045.336 1.505.336.37 0 .703-.039.992-.112.097-.17.14-.352.14-.546 0-.382-.102-.69-.317-.914-.244-.264-.605-.4-1.088-.4-.4 0-.763.107-1.07.322-.37.254-.557.6-.557 1.04zm12.252 1.637v-.02a.965.965 0 0 1-.177-.015c-.796-.108-1.416-.162-1.85-.162-.703 0-1.319.138-1.841.401-.796.405-1.196 1.06-1.196 1.953 0 .136.01.274.034.4.083.045.17.089.268.127.84.342 1.88.513 3.115.513.85 0 1.636-.264 2.349-.791-.082-.132-.126-.303-.126-.523 0 .025.014-.028.049-.156-.674-.009-1.007-.277-1.007-.8 0 .029.03-.089.093-.352.127-.244.357-.385.688-.434a2.722 2.722 0 0 0-.4-.142zm.863-6.28c.084-.093.157-.196.225-.303v-.015c.049-.126.078-.277.078-.449 0-.405-.293-.87-.879-1.391-.595-.538-1.142-.801-1.645-.801-.605 0-1.177.161-1.709.478-.342.206-.591.444-.752.723.297.264.712.571 1.245.913.522.342 1.021.614 1.49.83.487.224.83.434 1.03.634a.537.537 0 0 1 .023.025c.192-.17.392-.312.607-.42.107-.083.2-.16.287-.225zm-22.812.16c.107.108.371.162.796.162v.479c0 .63-.054 1.112-.156 1.44-.113.346-.284.581-.523.707a9.678 9.678 0 0 1-.502-1.122c-.274-.766-.415-1.724-.415-2.866 0-.523.126-1.573.385-3.154.264-1.514.405-2.305.415-2.369.053 0 .107-.024.161-.077.049-.054.103-.084.156-.084v.962c-.21.854-.317 1.44-.317 1.763 0 .317.107.907.317 1.757h.162v-.864c.043-.352.2-.65.478-.893h.323a12.092 12.092 0 0 1 0 3.358l.077.02c.054.03.079.078.079.142.405-.083.654-.377.751-.864.035-.161.049-.566.049-1.216 0-.385-.107-.84-.323-1.363-.208-.522-.316-.976-.316-1.361 0-.084.111-.191.337-.318.2-.107.327-.16.38-.16.088 0 .328.214.718.638v.161c.064-.254.088-.61.064-1.053-.039-.45-.064-.738-.064-.865 0-.323.162-.747.484-1.284.093.097.2.312.317.64.108.312.162.526.162.643 0 .723-.162 1.343-.479 1.857-.322.502-.484.976-.484 1.425 0 .127.054.42.162.879.107.45.16.742.16.878 0 .43-.263.884-.78 1.363-.47.425-.82.64-1.056.64-.278 0-.546-.113-.8-.338-.063-.053-.303-.312-.718-.781v1.119zm27.285-9.892a6.082 6.082 0 0 0-.259-.274 2.84 2.84 0 0 0-1.225-.75.543.543 0 0 1-.527-.103 3.506 3.506 0 0 0-.4-.025c-.523 0-1.032.185-1.52.561-.532.405-.8.87-.8 1.393v.11c.503.47 1.02.705 1.552.705.128 0 .366-.064.719-.19a8.29 8.29 0 0 0 1.132-.5c.64-.317 1.084-.63 1.328-.927zM21.846 5.97c0-.015.004-.029.009-.044h-.034a3.335 3.335 0 0 1-.287-1.362c0-.19.111-.592.336-1.202.2-.586.356-.961.464-1.117.064.062.151.175.268.331.142.205.21.333.21.386 0 .171-.033.328-.097.464-.039.088-.117.225-.22.415v.161c.596-.396 1.025-.879 1.294-1.455.263-.601.576-1.021.942-1.265V2.56c-.117.035-.282.176-.497.435-.254.308-.41.484-.464.527 0 .108-.054.162-.156.162.351.18.615.18.795 0l.161.053c-.01.385-.234.615-.674.698-.625.01-1.094.025-1.401.05 0 .054-.029.156-.082.316a1.284 1.284 0 0 0-.08.323c.108 0 .372.107.797.317-.136.269-.21.405-.22.42-.078.074-.215.093-.415.064.064.171.141.303.24.4.146.138.229.215.239.24-.054.054-.162.107-.323.161-.317-.035-.586-.284-.805-.757zm-9.576 9.077h-.585a8.936 8.936 0 0 1-.645-1.231 7.74 7.74 0 0 1-.689-3.169c0-.277.138-.81.415-1.601.235-.64.415-1.094.543-1.362.234.268.346.688.336 1.264l-.014 1.46c.18-.356.341-.918.479-1.7.136-.756.244-1.205.316-1.342h.323v1.119c-.054.287-.21.664-.464 1.122-.225.382-.336.758-.336 1.119 0 .234.126.639.385 1.215.244.537.435.88.576 1.026v.479h-.8c-.045-.03-.157-.215-.337-.558l-.303-.56v-.162c-.107.351.015.728.366 1.124.395.444.59.82.59 1.117 0 .151-.024.289-.077.415a.786.786 0 0 0-.079.225zm2.715-5.122c.161-.318.161-.64 0-.958v-.961c.107 0 .371.107.796.317v-1.28c-.21-.423-.317-.824-.317-1.2 0-.298.405-.874 1.216-1.728.689-.738 1.191-1.201 1.499-1.393.117.099.279.308.479.64-.456.161-.846.323-1.168.479-.625.313-.874.737-.746 1.284l.077.015a.153.153 0 0 1 .079.141c.088-.049.313-.141.674-.269.395-.141.648-.21.766-.21l.015.084a.17.17 0 0 0 .146.078c-.259.693-.674 1.206-1.25 1.538-.445.244-.669.664-.669 1.265 0 .17.034.293.098.367.039.043.117.106.22.19a1.93 1.93 0 0 1-.176.4c-.103.17-.313.253-.62.243l.479.479c-.182.371-.387.591-.607.655-.287-.01-.512-.015-.674-.015 0 .107-.053.215-.156.322v.318c.635 0 1.065-.054 1.275-.161l.019.082c.03.054.079.079.142.079-.45.556-.82.981-1.118 1.279.02.015.288.225.801.645a1.99 1.99 0 0 1-.523.366c-.77-1.055-1.396-1.816-1.875-2.29v-2.08c.108 0 .162-.054.162-.161.126.268.39.692.795 1.278l.079.02a.151.151 0 0 1 .082.142zM9.311 15.27c-.264-.585-.395-1.406-.395-2.465 0-.973.015-1.572.044-1.807.077-.503.274-.86.591-1.074.449.205.703.356.771.463.02.044.03.318.03.817 0 .131-.055.395-.162.8-.102.396-.156.664-.156.801 0 .205.079.63.24 1.284.156.64.239 1.065.239 1.28 0 .287-.108.502-.323.639a.722.722 0 0 1-.215.112 2.132 2.132 0 0 1-.664-.85z" fill="#C8964E"/><path d="M13.916 24.539c.136.023.303.034.493.034.073 0 .21-.015.401-.05.082-.01.229-.063.429-.16.235-.147.406-.313.513-.494a4.028 4.028 0 0 1-.99.112c-.46 0-.958-.112-1.506-.336a5.117 5.117 0 0 1-.395-.191c.01.22.049.406.118.557h.087c.289 0 .508.117.655.352.034.053.058.112.083.17.034 0 .069.006.112.006zm1.978-4.449c.195.108.443.161.751.161.181 0 .332-.005.45-.015a.721.721 0 0 0 .205-.146c.117-.117.21-.249.274-.4a.36.36 0 0 1 .013-.099c-.19.108-.4.162-.62.162-.556 0-.952-.112-1.186-.337a.753.753 0 0 1-.127-.176.71.71 0 0 0-.078.323c0 .225.108.4.318.527zm9.091-.674c.03-.01.069-.025.113-.044h-.015l-.024-.024-.074.068zm6.084-2.08c-.478.259-.844.385-1.098.385-.596-.205-1.05-.39-1.357-.561a.392.392 0 0 0-.02.128c0 .15.127.336.386.56.116.108.293.26.526.45.094.03.171.063.225.097a4.35 4.35 0 0 0 .718-.21c.181-.072.342-.165.478-.272.098-.172.142-.362.142-.577zm-.62-8.34c-.244.298-.688.61-1.328.928a8.29 8.29 0 0 1-1.132.498c-.353.127-.591.19-.719.19-.531 0-1.049-.235-1.552-.703.015.337.073.635.176.898.141-.16.336-.243.591-.243.288 0 .508.107.659.322a.836.836 0 0 1 .141.478c0 .122-.015.23-.039.322.118-.053.264-.082.439-.082a.91.91 0 0 1 .514.161.61.61 0 0 1 .282.464c.166.01.338.019.513.019.191 0 .386-.044.576-.132.03-.02.069-.038.113-.063.342-.19.683-.523 1.035-.992.132-.287.195-.576.195-.864 0-.404-.157-.806-.464-1.2zm-1.822 2.788c-.097-.068-.146-.127-.146-.18.079-.084.21-.138.4-.156a.655.655 0 0 1 .24.19.632.632 0 0 1-.156.24.65.65 0 0 1-.337-.094zm9.664 5.361a.422.422 0 0 0-.03.143c0 .204.02.322.064.35.064.078.259.157.591.244h.078c.151-.184.371-.272.673-.272.172 0 .318.029.445.088a2.272 2.272 0 0 0-.14-.636.336.336 0 0 1-.197.162c-.072.023-.2.029-.38.015-.299-.02-.479-.03-.543-.03-.224 0-.41-.019-.56-.064z" fill="#CFAE63"/><path d="M12.221 22.605l.015.014v-.034l-.015.02zm3.018 1.758c-.2.097-.347.15-.429.16a2.68 2.68 0 0 1-.401.05c-.19 0-.357-.01-.493-.034.371.151.81.092 1.323-.177zm1.856-4.127c-.117.01-.269.015-.45.015-.308 0-.556-.053-.751-.161l.018.098c.255.092.49.166.704.204.181-.028.337-.082.479-.156zm10.141 4.4c.025.098.034.185.034.273l.094-.063a1.728 1.728 0 0 0-.128-.21zm-.893-6.021c-.044.025-.078.044-.113.069l.079.028c.015-.028.023-.062.034-.097zm-.542.289a.41.41 0 0 0-.112.049 2.762 2.762 0 0 0-.607.42h.015c.264-.143.5-.3.704-.47zm5.669-1.793a3.862 3.862 0 0 1-.401.225c0 .215-.044.405-.142.577.298-.215.48-.48.543-.802zm-1.821 1.299h.049c.01 0 .018-.005.033-.015a1.028 1.028 0 0 0-.225-.098c.04.044.084.08.128.113h.015zm.034-6.357c.35-.083.645-.318.878-.703.054-.098.108-.191.157-.289-.352.469-.693.802-1.035.992zm5.463 9.287a4.3 4.3 0 0 1 .049-.4.873.873 0 0 1-.146-.113 1.108 1.108 0 0 0-.19-.337c0 .074-.005.143-.015.21.073.039.141.084.205.128.01.053.02.107.034.16.03.137.053.255.063.352zm-.546-1.86c-.299-.274-.571-.415-.83-.415h-.089c.03 0 .059.005.089.014.313.053.571.215.786.483l.044-.082z" fill="#DDAF64"/><path d="M12.861 23.371l-.049.049c.01.01.026.02.05.034v-.083zm12.252 1.617v.02l.287.013c-.107-.01-.2-.024-.287-.034zm.688-6.084l.19-.094-.015-.082c-.087.063-.18.14-.287.224a.41.41 0 0 1 .112-.048zm2.539-1.919c.073.054.166.111.274.175a.698.698 0 0 1 .19-.366 3.853 3.853 0 0 0-.464.191zm2.602-.255c.088.181.127.376.127.591v.015c.132-.063.264-.137.401-.225.01-.072.015-.151.015-.239a1.902 1.902 0 0 0-.543-.142zm-5.224-6.821v-.112l-.044.05c.01.018.025.043.044.062z" fill="#BD8437"/><path d="M25.815 27.414c-.713.527-1.499.791-2.349.791-1.235 0-2.275-.171-3.115-.512a2.556 2.556 0 0 1-.268-.128c.073.522.303.967.683 1.329.504.484 1.143.722 1.919.722 1.075 0 1.978-.238 2.715-.722.499-.323.855-.723 1.065-1.201-.308-.006-.523-.098-.65-.28zm-.83-7.998l.074-.069c-.195-.2-.543-.41-1.03-.635a11.367 11.367 0 0 1-1.49-.83 10.273 10.273 0 0 1-1.245-.912 1.618 1.618 0 0 0-.205.8c0 1.334.727 1.997 2.187 1.997a4.21 4.21 0 0 0 1.709-.35zm10.161 1.924a3.306 3.306 0 0 0-.063-.351c-.014-.054-.024-.108-.034-.162a2.04 2.04 0 0 0-.205-.127c-.079.381-.293.748-.659 1.089-.489.445-1.08.668-1.773.668-.253.01-.444.02-.576.02a1.902 1.902 0 0 1-.43-.082c.098.161.249.297.464.415.289.161.537.244.753.244.668 0 1.245-.136 1.723-.4.278-.151.478-.333.605-.548.088-.244.151-.502.195-.766zM28.965 7.971c.464.142.874.39 1.225.752.089.087.171.176.259.273.307.395.463.796.463 1.201 0 .288-.062.577-.194.864-.05.098-.103.191-.157.289-.233.385-.527.62-.878.703-.044.024-.083.043-.113.063-.19.088-.385.132-.576.132-.175 0-.346-.01-.513-.02v.065c0 .356-.131.585-.395.687h1.47c.541-.19 1.074-.526 1.596-1.005a4.15 4.15 0 0 0 .845-1.089c.224-.386.337-.732.337-1.04 0-.991-.395-1.754-1.182-2.276a4.108 4.108 0 0 0-.962-.464c-.136-.029-.277-.063-.429-.092l-.191-.044a.761.761 0 0 1 .064.107.965.965 0 0 1 .078.48c-.288.223-.537.365-.747.414z" fill="#BFB855"/><path d="M28.804 16.794a.698.698 0 0 0-.19.366c.307.171.761.356 1.357.561.254 0 .62-.126 1.098-.385v-.015c0-.215-.039-.41-.127-.591h-.063a4.496 4.496 0 0 0-.654-.034c-.704 0-1.124.015-1.26.049a.721.721 0 0 0-.161.049zm11.167.268c-.025-.073-.048-.15-.083-.238-.18-.415-.357-.625-.528-.625-.093 0-.282.111-.571.336-.278.215-.444.415-.498.61.152.045.337.064.562.064.063 0 .243.01.542.03.18.014.307.008.38-.015a.336.336 0 0 0 .196-.162z" fill="#B69532"/><path d="M3.164 18.889V17.77c.415.469.655.727.717.781.255.225.523.338.802.338.235 0 .586-.215 1.054-.64.518-.479.782-.933.782-1.363 0-.136-.054-.428-.162-.878-.107-.46-.16-.752-.16-.88 0-.448.16-.922.483-1.424.317-.514.479-1.134.479-1.857 0-.117-.054-.33-.162-.643-.117-.328-.224-.543-.317-.64-.322.537-.484.961-.484 1.284 0 .127.025.414.064.864.024.444 0 .8-.064 1.054v-.161c-.39-.424-.63-.639-.717-.639-.054 0-.181.054-.381.162-.226.126-.337.233-.337.317 0 .385.108.839.316 1.361.216.523.323.978.323 1.363 0 .65-.014 1.055-.049 1.216-.097.492-.346.781-.751.864 0-.064-.025-.113-.079-.141l-.077-.02a12.092 12.092 0 0 0 0-3.36H4.12a1.374 1.374 0 0 0-.479.895v.863h-.16c-.21-.85-.318-1.44-.318-1.757 0-.323.107-.909.317-1.763v-.962c-.053 0-.107.03-.156.084-.054.053-.108.077-.161.077-.01.064-.151.855-.415 2.369-.259 1.581-.385 2.631-.385 3.153 0 1.143.141 2.1.415 2.867.107.307.277.679.502 1.122.239-.126.41-.361.523-.707.102-.328.156-.81.156-1.44v-.479c-.425 0-.689-.054-.796-.161zm18.682-12.92c.219.473.488.722.805.757.162-.053.269-.107.323-.161-.01-.025-.093-.103-.239-.24a1.075 1.075 0 0 1-.24-.4c.2.029.337.01.415-.064.01-.015.084-.151.22-.42-.425-.21-.689-.317-.796-.317 0-.054.025-.161.079-.323.053-.16.082-.262.082-.316.307-.025.776-.04 1.401-.05.44-.082.664-.313.674-.697l-.161-.054c-.18.18-.444.18-.795 0 .102 0 .156-.054.156-.162.054-.043.21-.22.464-.527.215-.259.38-.4.497-.435V1.281c-.366.244-.679.664-.942 1.265-.269.577-.698 1.059-1.294 1.455V3.84c.102-.19.181-.327.22-.415.064-.136.098-.292.098-.464 0-.053-.07-.181-.21-.386a3.38 3.38 0 0 0-.27-.331c-.107.156-.263.531-.463 1.117-.225.61-.336 1.011-.336 1.201 0 .48.097.933.287 1.363h.034a.136.136 0 0 0-.009.044zm-6.861 3.955a.151.151 0 0 0-.082-.141l-.08-.02c-.404-.587-.668-1.01-.794-1.28 0 .108-.054.162-.162.162v2.08c.48.474 1.104 1.235 1.875 2.29a1.99 1.99 0 0 0 .523-.366c-.513-.42-.781-.63-.801-.645.297-.298.668-.723 1.118-1.279-.063 0-.112-.025-.142-.079l-.019-.082c-.21.107-.64.161-1.275.161v-.317c.103-.108.156-.215.156-.323.162 0 .387.005.674.015.22-.064.425-.284.606-.655l-.478-.479c.307.01.517-.072.62-.243a1.93 1.93 0 0 0 .176-.4c-.102-.084-.181-.147-.22-.19-.064-.074-.098-.197-.098-.367 0-.601.224-1.021.67-1.265.576-.332.99-.845 1.25-1.538a.17.17 0 0 1-.147-.078l-.015-.084c-.117 0-.371.069-.766.21-.362.128-.587.22-.674.269a.153.153 0 0 0-.079-.141l-.077-.015c-.128-.546.121-.971.746-1.284.323-.156.713-.317 1.168-.479-.2-.332-.362-.541-.48-.64-.307.192-.81.655-1.498 1.393-.811.854-1.216 1.43-1.216 1.727 0 .377.107.778.317 1.202v1.28c-.425-.21-.689-.318-.796-.318v.961c.161.318.161.64 0 .958zm-2.715 5.122c0-.03.025-.107.079-.225.053-.126.077-.264.077-.415 0-.297-.195-.674-.59-1.117-.351-.396-.473-.773-.366-1.124v.161l.303.561c.18.343.292.528.337.558h.8v-.479c-.141-.146-.332-.489-.576-1.026-.259-.576-.385-.981-.385-1.215 0-.361.111-.737.336-1.119.254-.458.41-.835.464-1.122V7.365h-.323c-.072.138-.18.586-.316 1.342-.137.782-.299 1.344-.479 1.7l.014-1.46c.01-.576-.102-.996-.336-1.264-.128.268-.308.722-.543 1.362-.277.791-.415 1.324-.415 1.601 0 1.08.23 2.134.689 3.169.2.464.42.875.645 1.231h.585z" fill="#C8964E"/><path d="M43.594 15.07c.02.02.038.035.059.049.092.088.19.171.278.25h.175c.172.029.294.067.366.111l.034.03v.019c.02-.004.04-.009.064-.009a.511.511 0 0 1 .386.072 11.321 11.321 0 0 0-.195-1.024 49.542 49.542 0 0 1-.191-.753 116.192 116.192 0 0 1-3.403-3.09c-2.182-2.046-3.608-3.37-4.282-3.97-3.32-2.969-6.314-5.127-8.975-6.485-.02.386-.015.889.025 1.505 0 .068 0 .141.005.21.009.16.019.307.034.449v.4c.107-.054.205-.108.302-.162.02.02.039.04.064.06.034.034.073.068.113.102a61.843 61.843 0 0 0 6.23 4.736c.693.459 1.65 1.089 2.876 1.89.912.62 1.489 1.06 1.724 1.314.83.952 1.88 2.021 3.148 3.217.43.415.817.777 1.163 1.079z" fill="#CDA870"/><path d="M43.653 15.119a.404.404 0 0 1-.06-.049l-.063.059c.039 0 .079-.005.123-.01zm-.05.376a4.5 4.5 0 0 0 .176.123c.005 0 .01.005.015.005l-.015-.03c-.024-.068-.083-.103-.175-.098zM28.34 2.726l-.015.049.128.059a.915.915 0 0 1-.113-.108z" fill="#F5E1A3"/><path d="M34.424 8.547c.449.357.909.723 1.391 1.103 2.94 2.354 5.499 4.277 7.676 5.772.029-.122.039-.22.039-.293l.064-.059a32.746 32.746 0 0 1-1.163-1.079c-1.268-1.196-2.319-2.265-3.148-3.217-.236-.254-.812-.694-1.724-1.314a625.548 625.548 0 0 1-2.877-1.89 61.843 61.843 0 0 1-6.23-4.736l-.127-.059c-.059.191-.185.445-.385.763 1.317.97 3.236 2.446 5.751 4.428l.142-.122c.132.02.288.058.483.112.01.054.03.113.064.176.029.053.044.157.044.303v.112z" fill="#F2E6CE"/><path d="M9.311 15.27c.166.363.386.645.664.85a.788.788 0 0 0 .215-.113c.215-.136.322-.35.322-.638 0-.215-.082-.64-.238-1.28-.161-.654-.24-1.079-.24-1.284 0-.137.053-.405.156-.801.107-.405.161-.669.161-.8 0-.499-.01-.773-.029-.817-.068-.107-.322-.258-.77-.463-.318.215-.514.571-.592 1.074-.029.235-.044.835-.044 1.807 0 1.059.131 1.88.395 2.465z" fill="#C8964E"/></g></svg><svg id="twitter" data-name="Layer 1" width="51.78" height="42.06" viewBox="0 0 51.78 42.06" x="183" y="112" xmlns="http://www.w3.org/2000/svg"><defs><style>.hcls-1{fill:#fff}</style></defs><title>twitter</title><path class="hcls-1" d="M51.78 5a22.23 22.23 0 0 1-5.32 5.52v1.38a30.15 30.15 0 0 1-1.25 8.53 30.81 30.81 0 0 1-3.76 8.13 32.1 32.1 0 0 1-6.06 6.92 27 27 0 0 1-8.48 4.8 31 31 0 0 1-10.62 1.8A29.47 29.47 0 0 1 0 37.29a22.71 22.71 0 0 0 2.56.13 20.78 20.78 0 0 0 13.17-4.53 10.63 10.63 0 0 1-9.92-7.36 13.45 13.45 0 0 0 2 .16 11 11 0 0 0 2.79-.36 10.44 10.44 0 0 1-6.09-3.67 10.25 10.25 0 0 1-2.41-6.75v-.13a10.52 10.52 0 0 0 4.8 1.34 10.6 10.6 0 0 1-3.45-3.78 10.34 10.34 0 0 1-1.28-5.07 10.4 10.4 0 0 1 1.45-5.33 30.08 30.08 0 0 0 9.71 7.83A29.57 29.57 0 0 0 25.53 13a11.79 11.79 0 0 1-.26-2.43 10.23 10.23 0 0 1 3-7.48 10.64 10.64 0 0 1 15 0l.21.22A20.81 20.81 0 0 0 50.33.8a10.3 10.3 0 0 1-4.67 5.85A21.14 21.14 0 0 0 51.78 5z"/></svg><svg id="wifi" data-name="Layer 1" width="60" height="64" viewBox="0 0 60 64" y="168" xmlns="http://www.w3.org/2000/svg"><defs><style>.icls-1{fill:#d4953e}</style></defs><title>wifi</title><path class="icls-1" d="M29.88 0A55.39 55.39 0 0 0 0 8.72l4.22 6.48a47.32 47.32 0 0 1 25.66-7.28 47.31 47.31 0 0 1 25.9 7.28L60 8.72A55.53 55.53 0 0 0 29.88 0zm0 24a31.08 31.08 0 0 0-17 5l4.22 6.72A23.09 23.09 0 0 1 29.8 32a24.17 24.17 0 0 1 13 3.76L47 29a32.37 32.37 0 0 0-17.2-5h.07zm0 24a8 8 0 1 0 8 8 8 8 0 0 0-8-8z"/></svg><svg width="183" height="58" viewBox="0 0 183 58" id="wine-cheese-escapes" xmlns="http://www.w3.org/2000/svg"><title>wine-cheese-escapes</title><g fill="#FFF" fill-rule="evenodd"><path d="M40.22 25.33v4.75H26.65v5.51H39.1v4.39H26.65v6.3H40.5v4.75H21v-25.7zM48.08 46.4a3 3 0 0 0 .88 1c.376.26.796.45 1.24.56a5.84 5.84 0 0 0 1.46.18 5.46 5.46 0 0 0 1.13-.13 3.86 3.86 0 0 0 1.08-.4 2.47 2.47 0 0 0 .85-.75 1.89 1.89 0 0 0 .32-1.13A1.91 1.91 0 0 0 53.51 44a30.59 30.59 0 0 0-4.3-1.19 24.88 24.88 0 0 1-2.18-.59 7.38 7.38 0 0 1-1.89-.9 4.35 4.35 0 0 1-1.33-1.4 4 4 0 0 1-.5-2.07 5.6 5.6 0 0 1 .7-3 5.16 5.16 0 0 1 1.85-1.82 8.13 8.13 0 0 1 2.59-.94 15.92 15.92 0 0 1 3-.27 14.79 14.79 0 0 1 2.93.29 7.77 7.77 0 0 1 2.54 1 5.83 5.83 0 0 1 1.8 1.88 6.11 6.11 0 0 1 .89 2.82h-4.89a2.24 2.24 0 0 0-1.12-2 5.1 5.1 0 0 0-2.37-.52 8.77 8.77 0 0 0-.94.05 3.15 3.15 0 0 0-.92.23 1.91 1.91 0 0 0-.7.52 1.38 1.38 0 0 0-.29.92 1.4 1.4 0 0 0 .5 1.12 3.88 3.88 0 0 0 1.31.7c.607.2 1.224.363 1.85.49l2.18.49a21.57 21.57 0 0 1 2.18.61 7.2 7.2 0 0 1 1.89 1c.545.391 1 .896 1.33 1.48a4.34 4.34 0 0 1 .5 2.18 5.65 5.65 0 0 1-2.66 5.07 7.9 7.9 0 0 1-2.74 1.03 15.9 15.9 0 0 1-3.11.31 15.36 15.36 0 0 1-3.17-.32 8.35 8.35 0 0 1-2.72-1.09 6.17 6.17 0 0 1-2-2 6.25 6.25 0 0 1-.85-3.11h4.85c-.01.5.114.994.36 1.43zm23.91-10.59a3.59 3.59 0 0 0-2.05.56 4.45 4.45 0 0 0-1.35 1.44 6.23 6.23 0 0 0-.74 1.94 10.54 10.54 0 0 0-.21 2.06c.003.672.074 1.342.21 2a6.32 6.32 0 0 0 .7 1.89 4 4 0 0 0 1.31 1.39c.6.372 1.295.56 2 .54a3.75 3.75 0 0 0 2.83-1 4.86 4.86 0 0 0 1.24-2.75h4.93a8.43 8.43 0 0 1-2.88 5.65 9.29 9.29 0 0 1-6.08 1.94 10.16 10.16 0 0 1-3.83-.7 8.49 8.49 0 0 1-3-2 8.92 8.92 0 0 1-1.91-3 10.42 10.42 0 0 1-.68-3.83 12.4 12.4 0 0 1 .63-4 9 9 0 0 1 1.9-3.13 8.49 8.49 0 0 1 3-2.1 10.15 10.15 0 0 1 4-.76 11.63 11.63 0 0 1 3.19.43 8.49 8.49 0 0 1 2.73 1.31A6.79 6.79 0 0 1 80.76 39h-5a3.43 3.43 0 0 0-3.77-3.19zm11.55 2.33a5.93 5.93 0 0 1 .9-3 6.13 6.13 0 0 1 2-1.91 8.83 8.83 0 0 1 2.75-1 15.71 15.71 0 0 1 3.08-.31c.95.002 1.899.069 2.84.2a8.72 8.72 0 0 1 2.63.77 5.18 5.18 0 0 1 1.98 1.59c.54.8.807 1.755.76 2.72v9.68c-.003.805.044 1.61.14 2.41a4.34 4.34 0 0 0 .5 1.73h-5.19a6.77 6.77 0 0 1-.21-.88 7.44 7.44 0 0 1-.13-.92 6.64 6.64 0 0 1-2.87 1.76 11.55 11.55 0 0 1-3.38.5 9.1 9.1 0 0 1-2.48-.32 5.68 5.68 0 0 1-2-1 4.69 4.69 0 0 1-1.35-1.73 5.84 5.84 0 0 1-.49-2.48 5.42 5.42 0 0 1 .56-2.61 4.66 4.66 0 0 1 1.44-1.64 6.44 6.44 0 0 1 2-.92 21.75 21.75 0 0 1 2.29-.49 39.9 39.9 0 0 1 2.27-.29 13.74 13.74 0 0 0 2-.32 3.43 3.43 0 0 0 1.37-.63 1.38 1.38 0 0 0 .4-1.24 2.72 2.72 0 0 0-.27-1.31 2 2 0 0 0-.72-.69 2.86 2.86 0 0 0-1-.36 8.61 8.61 0 0 0-1.28-.09 3.88 3.88 0 0 0-2.37.65 2.89 2.89 0 0 0-1 2.16h-5.17v-.03zm11.8 3.78a2.28 2.28 0 0 1-.81.45 8.28 8.28 0 0 1-1 .27c-.41.07-.81.17-1.2.17-.39 0-.82.11-1.22.18a9.24 9.24 0 0 0-1.13.29 3.34 3.34 0 0 0-1 .49 2.3 2.3 0 0 0-.67.77 2.49 2.49 0 0 0-.25 1.19 2.4 2.4 0 0 0 .25 1.15c.157.302.392.558.68.74a2.9 2.9 0 0 0 1 .38c.392.073.79.11 1.19.11a4.51 4.51 0 0 0 2.34-.5 3.36 3.36 0 0 0 1.22-1.21 3.87 3.87 0 0 0 .49-1.42c.063-.387.103-.778.12-1.17v-1.89h-.01zm13.94-9.51v2.4h.07a5.62 5.62 0 0 1 2.37-2.22 7.29 7.29 0 0 1 3.17-.68 8.07 8.07 0 0 1 3.78.83 7.82 7.82 0 0 1 2.63 2.2 9.31 9.31 0 0 1 1.55 3.19 14.19 14.19 0 0 1 .5 3.8 12.82 12.82 0 0 1-.5 3.6 9.18 9.18 0 0 1-1.53 3.06 7.58 7.58 0 0 1-2.6 2.11 7.69 7.69 0 0 1-3.58.79 7.23 7.23 0 0 1-3.18-.7 6 6 0 0 1-2.39-2.07h-.04v8.82h-5.11V32.41h4.86zm6.64 14.76a4.09 4.09 0 0 0 1.36-1.36 5.43 5.43 0 0 0 .74-1.89c.146-.724.22-1.461.22-2.2a10.32 10.32 0 0 0-.23-2.2 5.86 5.86 0 0 0-.77-1.92 4.33 4.33 0 0 0-1.39-1.37 3.87 3.87 0 0 0-2.08-.42 3.94 3.94 0 0 0-2.11.52 4.22 4.22 0 0 0-1.37 1.35 5.6 5.6 0 0 0-.74 1.91 11.3 11.3 0 0 0-.2 2.22c-.002.74.075 1.477.23 2.2a5.69 5.69 0 0 0 .76 1.8 4.36 4.36 0 0 0 5.58 1.36zm15.95-.61a5.24 5.24 0 0 0 6 .34 3.21 3.21 0 0 0 1.37-1.64h4.48a8.54 8.54 0 0 1-3.31 4.79 9.75 9.75 0 0 1-5.4 1.44 10.6 10.6 0 0 1-4-.7 8.22 8.22 0 0 1-3-2 9 9 0 0 1-1.89-3.09 11.34 11.34 0 0 1-.67-4 10.84 10.84 0 0 1 .68-3.89 9 9 0 0 1 4.95-5.18 9.63 9.63 0 0 1 3.87-.76 8.84 8.84 0 0 1 4.14.92 8.26 8.26 0 0 1 2.9 2.46 10.14 10.14 0 0 1 1.73 3.56c.339 1.352.46 2.75.36 4.14h-13.46a5.16 5.16 0 0 0 1.25 3.61zm5.78-9.75a3.59 3.59 0 0 0-2.79-1 4.45 4.45 0 0 0-2 .41 3.89 3.89 0 0 0-1.3 1 3.77 3.77 0 0 0-.68 1.3 5.83 5.83 0 0 0-.23 1.22h8.31a5.91 5.91 0 0 0-1.31-2.93zm13.71 9.59a3 3 0 0 0 .88 1c.376.26.796.45 1.24.56a5.83 5.83 0 0 0 1.46.18 5.46 5.46 0 0 0 1.13-.13 3.86 3.86 0 0 0 1.08-.4 2.47 2.47 0 0 0 .81-.72 1.89 1.89 0 0 0 .32-1.13 1.91 1.91 0 0 0-1.56-1.76 30.55 30.55 0 0 0-4.22-1.19 26.215 26.215 0 0 1-2.18-.59 7.39 7.39 0 0 1-1.89-.9 4.36 4.36 0 0 1-1.33-1.4 4 4 0 0 1-.5-2.07 5.6 5.6 0 0 1 .7-3 5.18 5.18 0 0 1 1.85-1.82 8.13 8.13 0 0 1 2.59-.94 15.91 15.91 0 0 1 3-.27 14.79 14.79 0 0 1 2.93.29 7.77 7.77 0 0 1 2.54 1 5.84 5.84 0 0 1 1.85 1.82 6.11 6.11 0 0 1 .88 2.86h-4.86a2.24 2.24 0 0 0-1.12-2 5.1 5.1 0 0 0-2.37-.52 8.77 8.77 0 0 0-.94.05 3.15 3.15 0 0 0-.92.23 1.9 1.9 0 0 0-.7.52 1.38 1.38 0 0 0-.29.92 1.4 1.4 0 0 0 .5 1.12 3.87 3.87 0 0 0 1.31.7c.607.2 1.224.363 1.85.49l2.1.51a21.57 21.57 0 0 1 2.18.61 7.18 7.18 0 0 1 1.89 1c.545.391 1 .896 1.33 1.48a4.33 4.33 0 0 1 .5 2.18 5.65 5.65 0 0 1-2.68 5.04 7.89 7.89 0 0 1-2.72 1.06 15.9 15.9 0 0 1-3.11.31 15.35 15.35 0 0 1-3.17-.32 8.35 8.35 0 0 1-2.75-1.08 6.18 6.18 0 0 1-2-2 6.25 6.25 0 0 1-.85-3.11h4.86a2.8 2.8 0 0 0 .38 1.42zM0 .269h4.62l1.664 8.797L8.712.27h4.608l2.439 8.797L17.424.27h4.597l-3.47 15.748h-4.769l-2.76-9.915-2.75 9.915h-4.77L0 .269zm24.224 0h4.372v2.975h-4.372V.27zm0 4.34h4.372v11.408h-4.372V4.608zm7.165 0h4.071v1.858c.609-.76 1.225-1.302 1.848-1.628.623-.325 1.382-.488 2.277-.488 1.21 0 2.157.36 2.841 1.08.684.719 1.026 1.83 1.026 3.335v7.25H39.06V9.744c0-.716-.133-1.223-.398-1.52-.265-.297-.637-.446-1.117-.446-.53 0-.96.2-1.29.602-.329.4-.493 1.12-.493 2.16v5.478h-4.372V4.608zm27.339 6.788h-8.766c.079.702.268 1.225.57 1.569.422.494.973.741 1.654.741.43 0 .837-.107 1.224-.322.236-.136.49-.376.763-.72l4.307.398c-.658 1.145-1.453 1.967-2.384 2.465-.931.498-2.267.746-4.007.746-1.511 0-2.7-.213-3.567-.639-.866-.426-1.584-1.103-2.153-2.03-.57-.927-.854-2.018-.854-3.271 0-1.783.57-3.226 1.713-4.33 1.142-1.102 2.72-1.653 4.732-1.653 1.633 0 2.922.247 3.867.74a5.004 5.004 0 0 1 2.16 2.15c.493.937.74 2.158.74 3.662v.494zM54.28 9.303c-.086-.845-.313-1.45-.682-1.816-.369-.365-.854-.548-1.455-.548-.695 0-1.25.276-1.665.828-.265.343-.434.855-.505 1.536h4.307zm26.512-.946l3.416.763c-.179.63-.35 1.135-.516 1.515-.164.38-.397.827-.698 1.343l1.644 1.127c.2.13.458.283.773.462l-2.352 2.707c-.43-.229-.876-.494-1.338-.795-.462-.3-.875-.558-1.24-.773-.76.501-1.519.867-2.278 1.096-1.053.315-2.249.472-3.588.472-2.098 0-3.66-.436-4.683-1.31-1.024-.874-1.536-1.934-1.536-3.18 0-.895.3-1.742.902-2.54.601-.799 1.586-1.474 2.954-2.025-.573-.695-.967-1.298-1.182-1.81a4.006 4.006 0 0 1-.322-1.563c0-1.117.426-2.038 1.278-2.761C72.88.362 74.171 0 75.904 0c1.77 0 3.069.344 3.9 1.031.83.688 1.246 1.511 1.246 2.471 0 .537-.127 1.053-.382 1.547-.254.494-.56.895-.918 1.203-.358.308-.999.766-1.923 1.375a27.943 27.943 0 0 0 2.396 2.138c.222-.444.411-.913.569-1.408zm-5.027-2.76c.565-.308 1.002-.643 1.31-1.005.308-.361.462-.703.462-1.026 0-.336-.129-.62-.387-.854-.257-.232-.612-.349-1.063-.349-.444 0-.806.13-1.085.387-.28.258-.419.562-.419.913 0 .444.394 1.089 1.182 1.934zM74.207 9.42c-.602.422-1 .784-1.198 1.085-.197.3-.295.62-.295.956 0 .523.225.988.677 1.396.45.409 1.038.613 1.761.613.78 0 1.658-.305 2.632-.913-.93-.717-2.123-1.762-3.577-3.137zm31.54.161l4.264 1.29c-.287 1.195-.738 2.194-1.354 2.996a5.874 5.874 0 0 1-2.293 1.816c-.913.408-2.075.612-3.486.612-1.712 0-3.11-.249-4.195-.747-1.085-.497-2.021-1.373-2.809-2.626-.788-1.253-1.182-2.858-1.182-4.813 0-2.606.693-4.61 2.079-6.01C98.157.7 100.117 0 102.652 0c1.984 0 3.543.401 4.679 1.203 1.135.802 1.978 2.034 2.53 3.695l-4.298.956c-.15-.48-.307-.83-.472-1.052a2.8 2.8 0 0 0-1-.86 2.87 2.87 0 0 0-1.32-.3c-1.103 0-1.948.444-2.536 1.332-.444.658-.666 1.693-.666 3.104 0 1.748.265 2.945.795 3.593.53.649 1.275.973 2.235.973.93 0 1.634-.262 2.11-.785.477-.522.822-1.282 1.037-2.277zm6.337-9.313h4.372v5.8c.594-.616 1.185-1.056 1.773-1.321.587-.265 1.281-.397 2.084-.397 1.188 0 2.125.361 2.809 1.085.684.723 1.025 1.833 1.025 3.33v7.25h-4.393V9.744c0-.716-.133-1.223-.398-1.52-.265-.297-.637-.446-1.117-.446-.53 0-.96.2-1.289.602-.33.4-.494 1.12-.494 2.16v5.478h-4.372V.269zm27.339 11.128h-8.766c.079.702.269 1.225.57 1.569.422.494.974.741 1.654.741.43 0 .838-.107 1.224-.322.237-.136.491-.376.763-.72l4.308.398c-.66 1.145-1.454 1.967-2.385 2.465-.931.498-2.267.746-4.007.746-1.51 0-2.7-.213-3.566-.639-.867-.426-1.585-1.103-2.154-2.03-.57-.927-.854-2.018-.854-3.271 0-1.783.571-3.226 1.713-4.33 1.143-1.102 2.72-1.653 4.732-1.653 1.633 0 2.922.247 3.867.74a5.004 5.004 0 0 1 2.16 2.15c.494.937.74 2.158.74 3.662v.494zm-4.447-2.094c-.086-.845-.314-1.45-.683-1.816-.368-.365-.854-.548-1.455-.548-.695 0-1.25.276-1.665.828-.265.343-.433.855-.505 1.536h4.308zm19.12 2.094h-8.765c.079.702.269 1.225.57 1.569.422.494.973.741 1.654.741.43 0 .838-.107 1.224-.322.237-.136.49-.376.763-.72l4.308.398c-.66 1.145-1.454 1.967-2.385 2.465-.931.498-2.267.746-4.007.746-1.511 0-2.7-.213-3.566-.639-.867-.426-1.585-1.103-2.154-2.03-.57-.927-.854-2.018-.854-3.271 0-1.783.57-3.226 1.713-4.33 1.142-1.102 2.72-1.653 4.732-1.653 1.633 0 2.922.247 3.867.74a5.004 5.004 0 0 1 2.16 2.15c.494.937.74 2.158.74 3.662v.494zm-4.447-2.094c-.086-.845-.313-1.45-.682-1.816-.369-.365-.854-.548-1.455-.548-.695 0-1.25.276-1.665.828-.265.343-.434.855-.505 1.536h4.307zm5.683 3.555l4.34-.408c.179.516.43.885.752 1.107.322.222.752.333 1.289.333.587 0 1.042-.126 1.364-.376.25-.187.376-.42.376-.699 0-.315-.165-.558-.494-.73-.236-.122-.863-.272-1.88-.451-1.518-.265-2.573-.51-3.163-.736a3.338 3.338 0 0 1-1.494-1.144 2.973 2.973 0 0 1-.607-1.837c0-.752.219-1.4.656-1.944.437-.545 1.038-.951 1.804-1.22.767-.268 1.794-.402 3.083-.402 1.361 0 2.365.103 3.014.311.648.208 1.188.53 1.622.967.433.437.793 1.028 1.08 1.772l-4.147.409c-.108-.366-.287-.634-.537-.806-.344-.23-.76-.344-1.246-.344-.495 0-.854.088-1.08.263-.226.176-.338.389-.338.64 0 .279.143.49.43.633.286.144.909.272 1.868.387 1.454.165 2.536.394 3.245.688.709.293 1.251.712 1.627 1.256.376.545.564 1.143.564 1.794 0 .66-.199 1.3-.596 1.923-.398.623-1.024 1.12-1.88 1.488-.856.369-2.021.553-3.497.553-2.084 0-3.568-.297-4.452-.891-.885-.595-1.452-1.44-1.703-2.536zm26.877-1.46h-8.766c.08.701.269 1.224.57 1.568.422.494.974.741 1.654.741.43 0 .838-.107 1.225-.322.236-.136.49-.376.762-.72l4.308.398c-.659 1.145-1.454 1.967-2.385 2.465-.93.498-2.266.746-4.007.746-1.51 0-2.7-.213-3.566-.639-.867-.426-1.585-1.103-2.154-2.03-.57-.927-.854-2.018-.854-3.271 0-1.783.571-3.226 1.713-4.33 1.143-1.102 2.72-1.653 4.732-1.653 1.633 0 2.922.247 3.868.74a5.004 5.004 0 0 1 2.159 2.15c.494.937.741 2.158.741 3.662v.494zm-4.447-2.095c-.086-.845-.314-1.45-.682-1.816-.37-.365-.854-.548-1.456-.548-.695 0-1.25.276-1.665.828-.265.343-.433.855-.505 1.536h4.308z"/></g></svg><svg width="28" height="110" viewBox="0 0 28 110" id="wineBottle" y="58" xmlns="http://www.w3.org/2000/svg"><title>wineBottle</title><path d="M11.647.012c-.114.018-.634.06-1.163.095-1.162.06-1.154.06-1.317 1.298-.065.464-.154.954-.195 1.083-.049.13-.106.843-.138 1.582-.05 1.126-.033 1.444.081 1.848.163.61.163 1.436.008 5.931-.317 8.94-.455 13.075-.496 14.811-.073 2.811-.179 3.138-1.667 4.986-1.984 2.476-2.228 2.785-2.83 3.748-1.666 2.622-2.74 5.407-3.374 8.76-.48 2.535-.455.567-.455 32.493v29.27l.212.85c.325 1.385.918 2.571 1.504 3.027l.268.206h11.871c11.66 0 11.887 0 12.14-.172.56-.361 1.187-1.582 1.552-3l.204-.825.032-28.883c.033-26.107.025-29.012-.09-30.198-.34-3.379-1.121-6.319-2.398-9.044-.886-1.874-1.789-3.266-3.325-5.14-1.407-1.71-1.862-2.338-2.139-2.914-.3-.628-.325-.972-.48-5.57-.048-1.47-.154-4.737-.243-7.264-.383-11.115-.366-10.255-.204-10.883.122-.481.139-.8.106-2.046-.024-.816-.081-1.564-.13-1.659-.049-.094-.13-.516-.179-.937-.049-.412-.146-.877-.211-1.031-.122-.258-.147-.275-.748-.327-.748-.06-5.903-.138-6.196-.095z" fill-rule="nonzero" fill="#CA974F"/></svg><svg id="youtube" data-name="Layer 1" width="34.75" height="42" viewBox="0 0 34.75 42" x="102.00999999999999" y="168" xmlns="http://www.w3.org/2000/svg"><defs><style>.lcls-1{fill:#fff}</style></defs><title>youtube</title><path class="lcls-1" d="M22.13 29.15v5q0 1.57-.91 1.57a1.5 1.5 0 0 1-1.06-.52v-7.11a1.5 1.5 0 0 1 1.06-.54q.91 0 .91 1.6zm7.92 0v1.08h-2.1v-1.06q0-1.59 1.06-1.59t1 1.59zM7.42 24h2.5v-2.14h-7.3v2.2h2.46V37.4h2.34V24zm6.75 13.4h2.09V25.82h-2.09v8.86a1.86 1.86 0 0 1-1.31 1 .48.48 0 0 1-.49-.47 6.52 6.52 0 0 1 0-.82v-8.57h-2.14V35a5.79 5.79 0 0 0 .19 1.71 1.26 1.26 0 0 0 1.36.87 3.43 3.43 0 0 0 2.39-1.43v1.25zm10.05-3.47v-4.6A8.33 8.33 0 0 0 24 27a1.63 1.63 0 0 0-1.67-1.31A2.82 2.82 0 0 0 20.16 27v-5.1h-2.08v15.5h2.09v-1.13a2.91 2.91 0 0 0 2.18 1.31A1.62 1.62 0 0 0 24 36.27a8.61 8.61 0 0 0 .22-2.35zm7.92-.24v-.3H30a11.6 11.6 0 0 1 0 1.43.9.9 0 0 1-.94.85q-1.08 0-1.08-1.61V32h4.19v-2.41a4.65 4.65 0 0 0-.66-2.72 3.2 3.2 0 0 0-5 0 4.52 4.52 0 0 0-.66 2.72v4.05a4.4 4.4 0 0 0 .66 2.72 3 3 0 0 0 2.49 1.2 2.9 2.9 0 0 0 3-2.51 10.31 10.31 0 0 0 .09-1.36zM17.89 12.3V7.38q0-1.61-1-1.61t-1 1.61v4.92q0 1.64 1 1.64t1-1.64zm16.85 17.6a40.6 40.6 0 0 1-.61 8.2 4.45 4.45 0 0 1-1.36 2.32 4.1 4.1 0 0 1-2.39 1.08 125.31 125.31 0 0 1-13 .49 125.31 125.31 0 0 1-13-.49A4.15 4.15 0 0 1 2 40.42 4.28 4.28 0 0 1 .63 38.1 39.76 39.76 0 0 1 0 29.9a40.6 40.6 0 0 1 .61-8.2A4.45 4.45 0 0 1 2 19.37a4.25 4.25 0 0 1 2.41-1.1q4.29-.47 13-.47t13 .47a4.4 4.4 0 0 1 3.75 3.42 39.76 39.76 0 0 1 .58 8.21zM11.35 0h2.39l-2.83 9.35v6.35H8.57V9.35a39.68 39.68 0 0 0-1.43-5Q6.27 2 5.61 0H8.1l1.67 6.16zM20 7.8v4.1a4.59 4.59 0 0 1-.66 2.76 2.88 2.88 0 0 1-2.49 1.19 2.9 2.9 0 0 1-2.46-1.19 4.68 4.68 0 0 1-.66-2.76V7.8a4.59 4.59 0 0 1 .66-2.74 2.9 2.9 0 0 1 2.46-1.19 2.88 2.88 0 0 1 2.49 1.19A4.59 4.59 0 0 1 20 7.8zM27.87 4v11.7h-2.13v-1.27a3.37 3.37 0 0 1-2.41 1.45A1.31 1.31 0 0 1 22 15a6 6 0 0 1-.19-1.76V4h2.13v8.6a6.14 6.14 0 0 0 0 .82.49.49 0 0 0 .47.52 1.87 1.87 0 0 0 1.31-1V4h2.16z"/></svg></svg>