<?xml version="1.0" encoding="UTF-8"?>
<svg width="28px" height="110px" viewBox="0 0 28 110" version="1.1" xmlns="http://www.w3.org/2000/svg" xmlns:xlink="http://www.w3.org/1999/xlink">
    <!-- Generator: Sketch 43.2 (39069) - http://www.bohemiancoding.com/sketch -->
    <title>wineBottle</title>
    <defs></defs>
    <g id="Page-1" stroke="none" stroke-width="1" fill="none" fill-rule="evenodd">
        <g id="wineBottle" fill-rule="nonzero" fill="#CA974F">
            <path d="M11.6469375,109.987552 C11.5331054,109.97036 11.0127296,109.927379 10.4842229,109.892995 C9.32150824,109.832821 9.32963907,109.832821 9.16702164,108.594978 C9.1019747,108.130786 9.01253513,107.640807 8.97188075,107.511865 C8.92309555,107.382923 8.86617944,106.669444 8.83365589,105.930176 C8.78487068,104.804082 8.80113242,104.486025 8.91496464,104.082007 C9.07758206,103.471681 9.07758206,102.646452 8.92309555,98.1506736 C8.60599153,89.2106929 8.46776667,85.0759513 8.42711229,83.3395323 C8.35393445,80.528596 8.24823313,80.2019429 6.7602836,78.3537738 C4.77635088,75.8780868 4.53242472,75.5686259 3.93074021,74.6058587 C2.26391149,71.9840375 1.1906364,69.1988896 0.556428402,65.8463968 C0.0767069652,63.3105369 0.101099581,65.2790519 0.101099581,33.3530052 L0.101099581,4.08316431 L0.312502248,3.23214692 C0.637737121,1.84816913 1.23129076,0.661902442 1.81671354,0.206307269 L2.08503231,2.04493631e-08 L13.9561052,2.04493631e-08 C25.6157754,2.04493631e-08 25.8434398,2.04493631e-08 26.0954968,0.171922727 C26.6565269,0.532960412 27.2826041,1.75361163 27.6484933,3.17197397 L27.8517651,3.99720296 L27.8842886,32.8802177 C27.9168121,58.9866809 27.9086812,61.8921746 27.794849,63.0784412 C27.4533524,66.4567224 26.6727887,69.3966007 25.3962418,72.1215756 C24.5099768,73.9955332 23.60745,75.3881071 22.0707153,77.2620646 C20.6640744,78.9726955 20.2087456,79.6002134 19.932296,80.1761545 C19.6314537,80.8036724 19.6070611,81.1475178 19.4525745,85.7464506 C19.4037893,87.2163896 19.2980879,90.4829209 19.2086483,93.0101848 C18.8264974,104.124988 18.8427591,103.265374 19.0053765,103.892892 C19.1273397,104.374276 19.1436014,104.692333 19.1110779,105.938772 C19.0866853,106.755405 19.0297692,107.503268 18.980984,107.597827 C18.9321987,107.692384 18.85089,108.113594 18.8021047,108.534805 C18.7533195,108.94742 18.6557491,109.411611 18.5907021,109.566341 C18.4687391,109.824225 18.4443464,109.841418 17.8426619,109.892995 C17.0946217,109.953167 11.939649,110.030532 11.6469375,109.987552 Z" id="Shape" transform="translate(14.000891, 55.000000) scale(-1, 1) rotate(-180.000000) translate(-14.000891, -55.000000) "></path>
        </g>
    </g>
</svg>