<?xml version="1.0" encoding="UTF-8"?>
<svg width="183px" height="58px" viewBox="0 0 183 58" version="1.1" xmlns="http://www.w3.org/2000/svg" xmlns:xlink="http://www.w3.org/1999/xlink">
    <!-- Generator: Sketch 43.2 (39069) - http://www.bohemiancoding.com/sketch -->
    <title>wine-cheese-escapes</title>
    <desc>Created with Sketch.</desc>
    <defs></defs>
    <g id="Page-1" stroke="none" stroke-width="1" fill="none" fill-rule="evenodd">
        <g id="wine-cheese-escapes" fill="#FFFFFF">
            <polygon id="Shape" points="40.22 25.33 40.22 30.08 26.65 30.08 26.65 35.59 39.1 35.59 39.1 39.98 26.65 39.98 26.65 46.28 40.5 46.28 40.5 51.03 21 51.03 21 25.33"></polygon>
            <path d="M48.08,46.4 C48.2946881,46.7950676 48.5954344,47.1368246 48.96,47.4 C49.3360598,47.6601309 49.7561977,47.8498706 50.2,47.96 C50.6771343,48.0812991 51.1676917,48.1417788 51.66,48.14 C52.0401654,48.1361264 52.4188866,48.0925567 52.79,48.01 C53.1679774,47.931425 53.5320286,47.7965913 53.87,47.61 C54.207645,47.4292761 54.4986411,47.1725149 54.72,46.86 C54.9439589,46.5268726 55.0560386,46.1310913 55.04,45.73 C54.9758826,44.8753848 54.3503685,44.1681042 53.51,44 C52.1075434,43.4991952 50.6703885,43.101471 49.21,42.81 C48.4633333,42.6433333 47.7366667,42.4466667 47.03,42.22 C46.3604365,42.011328 45.7240359,41.7082801 45.14,41.32 C44.5973771,40.9588713 44.1428457,40.4804171 43.81,39.92 C43.4593489,39.2878565 43.2865585,38.5725041 43.31,37.85 C43.258284,36.8042237 43.5007941,35.7648945 44.01,34.85 C44.461547,34.0956347 45.0983538,33.4691545 45.86,33.03 C46.6635633,32.571589 47.5394728,32.2536913 48.45,32.09 C49.4392192,31.9053877 50.4437141,31.8149832 51.45,31.82 C52.4338814,31.8189692 53.4154104,31.9161171 54.38,32.11 C55.2790449,32.2908304 56.1389796,32.6293874 56.92,33.11 C57.6540067,33.593015 58.2693395,34.235696 58.72,34.99 C59.2430929,35.8429473 59.5487098,36.8113065 59.61,37.81 L54.72,37.81 C54.7418863,36.9883378 54.3120009,36.2206854 53.6,35.81 C52.8633367,35.448529 52.0503292,35.2701476 51.23,35.29 C50.9159975,35.2898267 50.6022123,35.3065174 50.29,35.34 C49.973484,35.3698016 49.6633031,35.4473468 49.37,35.57 C49.0996913,35.6870378 48.8601148,35.8650089 48.67,36.09 C48.4658105,36.3517968 48.3628492,36.6784329 48.38,37.01 C48.3655567,37.4403604 48.5499611,37.8534263 48.88,38.13 C49.2675147,38.4455158 49.7123301,38.6832034 50.19,38.83 C50.7965898,39.0292493 51.4143105,39.1928618 52.04,39.32 L54.22,39.81 C54.9568429,39.9750357 55.6845114,40.1786493 56.4,40.42 C57.0762608,40.6574056 57.7132839,40.9944549 58.29,41.42 C58.8353549,41.8111134 59.2891668,42.3161071 59.62,42.9 C59.9742627,43.5705039 60.146654,44.3221299 60.12,45.08 C60.2186524,47.1273933 59.2006975,49.0676306 57.46,50.15 C56.6188046,50.6610224 55.689522,51.0103513 54.72,51.18 C53.6960295,51.3852169 52.6543316,51.4890518 51.61,51.49 C50.5450975,51.4935097 49.4827169,51.3862663 48.44,51.17 C47.4761707,50.9698396 46.5553276,50.6008253 45.72,50.08 C44.9074604,49.5771941 44.2228059,48.8925396 43.72,48.08 C43.1695586,47.1355094 42.8764737,46.0631634 42.87,44.97 L47.72,44.97 C47.7100715,45.4702707 47.8343827,45.9640625 48.08,46.4 Z M71.99,35.81 C71.2658107,35.7855037 70.5511592,35.9807256 69.94,36.37 C69.3878766,36.7428878 68.9265287,37.2349922 68.59,37.81 C68.2365503,38.4107198 67.9864104,39.066492 67.85,39.75 C67.7125553,40.4281095 67.642216,41.1181051 67.64,41.81 C67.6433574,42.4819891 67.7137054,43.1519693 67.85,43.81 C67.98073,44.4733887 68.2170678,45.111501 68.55,45.7 C68.8680145,46.2623205 69.3174947,46.7392499 69.86,47.09 C70.4595936,47.4615275 71.1548941,47.6492586 71.86,47.63 C72.9014132,47.7051852 73.9270198,47.3427801 74.69,46.63 C75.3845626,45.868065 75.8188225,44.9049886 75.93,43.88 L80.86,43.88 C80.6719877,46.0664011 79.6388017,48.0933111 77.98,49.53 C76.2460134,50.8743544 74.0921696,51.5616006 71.9,51.47 C70.5901448,51.4857534 69.2896027,51.2480564 68.07,50.77 C66.9383403,50.3258126 65.9152729,49.6437677 65.07,48.77 C64.238416,47.9083443 63.5888407,46.888069 63.16,45.77 C62.6949336,44.5473348 62.464248,43.2480324 62.48,41.94 C62.469406,40.5811536 62.6822432,39.2298061 63.11,37.94 C63.5221664,36.7774959 64.1688815,35.7121178 65.01,34.81 C65.8453319,33.9001031 66.8691443,33.1834344 68.01,32.71 C69.2783148,32.1890961 70.6390203,31.930562 72.01,31.95 C73.0881243,31.944779 74.161738,32.0894981 75.2,32.38 C76.1811475,32.6495477 77.1058519,33.0932703 77.93,33.69 C79.648906,34.9225954 80.6952227,36.8858257 80.76,39 L75.76,39 C75.6996125,38.0705418 75.26383,37.2056077 74.5527984,36.6039655 C73.8417668,36.0023234 72.9166332,35.7157132 71.99,35.81 Z M83.54,38.14 C83.5657173,37.0774132 83.8765603,36.0412701 84.44,35.14 C84.9524739,34.3593001 85.6365473,33.70601 86.44,33.23 C87.294671,32.7460423 88.2240969,32.4080693 89.19,32.23 C90.2039577,32.0255227 91.2356314,31.9216854 92.27,31.92 C93.2201178,31.9218804 94.168996,31.9887028 95.11,32.12 C96.0217703,32.2364481 96.9093955,32.4963232 97.74,32.89 C98.5217002,33.2475091 99.202146,33.7939277 99.72,34.48 C100.260622,35.28071 100.527269,36.2350261 100.48,37.2 L100.48,46.88 C100.476823,47.6854545 100.523579,48.4903313 100.62,49.29 C100.663879,49.8952822 100.834212,50.4846338 101.12,51.02 L95.93,51.02 C95.8404566,50.7316773 95.7702999,50.4376877 95.72,50.14 C95.6575414,49.8363413 95.6141234,49.5290756 95.59,49.22 C94.8004175,50.0434811 93.8119791,50.6496316 92.72,50.98 C91.6243525,51.3133148 90.4852244,51.4818249 89.34,51.48 C88.5025467,51.4879612 87.6680031,51.3802781 86.86,51.16 C86.1336585,50.9624805 85.4538205,50.6225614 84.86,50.16 C84.2795253,49.6982036 83.816862,49.1053092 83.51,48.43 C83.1675613,47.6490227 83.0003102,46.8025269 83.02,45.95 C82.9861556,45.0469189 83.1786605,44.1497084 83.58,43.34 C83.9234144,42.6870535 84.4169488,42.1249727 85.02,41.7 C85.6289212,41.2808149 86.3054707,40.9696021 87.02,40.78 C87.77398,40.5756611 88.5384211,40.4120907 89.31,40.29 C90.0766667,40.17 90.8333333,40.0733333 91.58,40 C92.2536314,39.9426828 92.9221139,39.8357256 93.58,39.68 C94.0777451,39.5742236 94.5457191,39.3590238 94.95,39.05 C95.2823461,38.7295902 95.4324656,38.26422 95.35,37.81 C95.3704399,37.3576668 95.2776341,36.9073867 95.08,36.5 C94.9021115,36.212895 94.6544115,35.9755158 94.36,35.81 C94.0520874,35.6285737 93.7128984,35.5064657 93.36,35.45 C92.9361658,35.3882041 92.5083113,35.3581206 92.08,35.36 C91.2404393,35.314149 90.408703,35.5422623 89.71,36.01 C89.0818745,36.5529324 88.7175916,37.3397835 88.71,38.17 L83.54,38.17 L83.54,38.14 Z M95.34,41.92 C95.1036481,42.123862 94.8279555,42.2770245 94.53,42.37 C94.2026282,42.4807818 93.8686416,42.5709582 93.53,42.64 C93.12,42.71 92.72,42.81 92.33,42.81 C91.94,42.81 91.51,42.92 91.11,42.99 C90.7276008,43.0627679 90.3501821,43.1596276 89.98,43.28 C89.6215948,43.3862222 89.2835641,43.5518572 88.98,43.77 C88.7018153,43.9732467 88.4728445,44.2363923 88.31,44.54 C88.129604,44.9099109 88.0437095,45.3187684 88.06,45.73 C88.0465999,46.1281408 88.1325162,46.5233557 88.31,46.88 C88.4673405,47.1823888 88.7019617,47.4377118 88.99,47.62 C89.2968843,47.8075835 89.635986,47.9364421 89.99,48 C90.3824315,48.0732441 90.7807918,48.1100673 91.18,48.11 C91.9907918,48.157066 92.7992478,47.984319 93.52,47.61 C94.0246673,47.319225 94.4450813,46.902257 94.74,46.4 C94.994511,45.9632135 95.1609798,45.4807939 95.23,44.98 C95.2927832,44.592674 95.3328516,44.2020065 95.35,43.81 L95.35,41.92 L95.34,41.92 Z M109.28,32.41 L109.28,34.81 L109.35,34.81 C109.904337,33.8529102 110.72876,33.0806663 111.72,32.59 C112.712229,32.1282601 113.795687,31.8958464 114.89,31.91 C116.19867,31.8759763 117.495972,32.1608335 118.67,32.74 C119.698624,33.2697407 120.59688,34.0211342 121.3,34.94 C122.016302,35.8941888 122.542515,36.9771693 122.85,38.13 C123.187752,39.3682256 123.355952,40.6465501 123.35,41.93 C123.355146,43.1476559 123.186788,44.359835 122.85,45.53 C122.536251,46.6368612 122.017239,47.6748838 121.32,48.59 C120.62146,49.4783568 119.733121,50.199278 118.72,50.7 C117.607806,51.2480969 116.379571,51.519132 115.14,51.49 C114.040563,51.5015001 112.952985,51.262096 111.96,50.79 C110.992588,50.3260942 110.167264,49.6112738 109.57,48.72 L109.53,48.72 L109.53,57.54 L104.42,57.54 L104.42,32.41 L109.28,32.41 Z M115.92,47.17 C116.474994,46.8312174 116.941217,46.3649942 117.28,45.81 C117.643266,45.2321109 117.894318,44.5909113 118.02,43.92 C118.165779,43.1957273 118.239472,42.4587978 118.24,41.72 C118.242373,40.9805444 118.165264,40.2429754 118.01,39.52 C117.869222,38.8394023 117.608493,38.1892745 117.24,37.6 C116.886962,37.0435039 116.411554,36.5749361 115.85,36.23 C115.20934,35.8989392 114.488923,35.7534703 113.77,35.81 C113.031827,35.7821069 112.30068,35.9622948 111.66,36.33 C111.105504,36.668544 110.636661,37.1305426 110.29,37.68 C109.928002,38.265756 109.67714,38.9132521 109.55,39.59 C109.410333,40.3216004 109.343341,41.0652171 109.35,41.81 C109.34755,42.5494595 109.42466,43.2870368 109.58,44.01 C109.727652,44.6493328 109.984775,45.2583091 110.34,45.81 C111.596507,47.5974156 113.981973,48.1788195 115.92,47.17 Z M131.87,46.56 C133.599844,47.9228956 135.997263,48.0587493 137.87,46.9 C138.500566,46.5258422 138.984037,45.9470885 139.24,45.26 L143.72,45.26 C143.21182,47.1950992 142.04036,48.8903531 140.41,50.05 C138.789079,51.046649 136.911952,51.5472162 135.01,51.49 C133.644014,51.5166292 132.285762,51.278935 131.01,50.79 C129.874311,50.3535671 128.849665,49.6704697 128.01,48.79 C127.177099,47.8987304 126.534078,46.8474425 126.12,45.7 C125.658112,44.4177617 125.43115,43.0627619 125.45,41.7 C125.436576,40.3726355 125.667067,39.0540939 126.13,37.81 C126.991973,35.4726667 128.784197,33.597168 131.08,32.63 C132.303755,32.1123942 133.621383,31.8536351 134.95,31.87 C136.384208,31.8361921 137.805095,32.1519449 139.09,32.79 C140.23484,33.3732876 141.22782,34.2156091 141.99,35.25 C142.794921,36.3115034 143.382785,37.5212125 143.72,38.81 C144.058839,40.1621682 144.180359,41.5596406 144.08,42.95 L130.62,42.95 C130.559462,44.2689395 131.00682,45.5609074 131.87,46.56 Z M137.65,36.81 C136.907416,36.090417 135.890616,35.7259727 134.86,35.81 C134.170568,35.789825 133.485884,35.9301853 132.86,36.22 C132.360522,36.4571549 131.917339,36.7980645 131.56,37.22 C131.25039,37.6046228 131.01935,38.0463182 130.88,38.52 C130.760129,38.9173212 130.683025,39.3263062 130.65,39.74 L138.96,39.74 C138.801968,38.6611923 138.348581,37.647129 137.65,36.81 Z M151.36,46.4 C151.574688,46.7950676 151.875434,47.1368246 152.24,47.4 C152.61606,47.6601309 153.036198,47.8498706 153.48,47.96 C153.957114,48.0814047 154.447685,48.141886 154.94,48.14 C155.320165,48.1361264 155.698887,48.0925567 156.07,48.01 C156.447977,47.931425 156.812029,47.7965913 157.15,47.61 C157.469971,47.4329227 157.74663,47.187004 157.96,46.89 C158.183959,46.5568726 158.296039,46.1610913 158.28,45.76 C158.22567,44.8847859 157.582363,44.1590036 156.72,44 C155.343651,43.5027717 153.933353,43.1050811 152.5,42.81 C151.76,42.6433333 151.033333,42.4466667 150.32,42.22 C149.650486,42.0112011 149.014103,41.7081615 148.43,41.32 C147.887597,40.9586092 147.433119,40.4802105 147.1,39.92 C146.749349,39.2878565 146.576558,38.5725041 146.6,37.85 C146.548284,36.8042237 146.790794,35.7648945 147.3,34.85 C147.752246,34.0961844 148.388892,33.469862 149.15,33.03 C149.953563,32.571589 150.829473,32.2536913 151.74,32.09 C152.729211,31.9053281 153.733712,31.8149231 154.74,31.82 C155.723881,31.8189692 156.70541,31.9161171 157.67,32.11 C158.569045,32.2908304 159.42898,32.6293874 160.21,33.11 C160.955363,33.5702377 161.587639,34.1922608 162.06,34.93 C162.585851,35.7956581 162.888253,36.7784637 162.94,37.79 L158.08,37.79 C158.101886,36.9683378 157.672001,36.2006854 156.96,35.79 C156.223337,35.428529 155.410329,35.2501476 154.59,35.27 C154.275998,35.2698267 153.962212,35.2865174 153.65,35.32 C153.333484,35.3498016 153.023303,35.4273468 152.73,35.55 C152.459508,35.6667208 152.219864,35.8447422 152.03,36.07 C151.825811,36.3317968 151.722849,36.6584329 151.74,36.99 C151.725557,37.4203604 151.909961,37.8334263 152.24,38.11 C152.627375,38.4257264 153.072233,38.663437 153.55,38.81 C154.156557,39.009359 154.774284,39.1729733 155.4,39.3 L157.5,39.81 C158.236843,39.9750357 158.964511,40.1786493 159.68,40.42 C160.356381,40.6571302 160.993444,40.9942004 161.57,41.42 C162.115355,41.8111134 162.569167,42.3161071 162.9,42.9 C163.254704,43.5703397 163.427123,44.3220853 163.4,45.08 C163.483397,47.1209341 162.458707,49.0479629 160.72,50.12 C159.887161,50.6394478 158.964708,50.9989331 158,51.18 C156.97603,51.3852169 155.934332,51.4890518 154.89,51.49 C153.825094,51.4935821 152.762706,51.3863379 151.72,51.17 C150.746425,50.9763226 149.815184,50.6105989 148.97,50.09 C148.157688,49.5869068 147.473093,48.902312 146.97,48.09 C146.419559,47.1455094 146.126474,46.0731634 146.12,44.98 L150.98,44.98 C150.977942,45.4787288 151.109129,45.9689564 151.36,46.4 Z" id="Shape"></path>
            <path d="M0,0.268554688 L4.61914062,0.268554688 L6.28417969,9.06640625 L8.71191406,0.268554688 L13.3203125,0.268554688 L15.7587891,9.06640625 L17.4238281,0.268554688 L22.0214844,0.268554688 L18.5517578,16.0166016 L13.7822266,16.0166016 L11.0214844,6.1015625 L8.27148438,16.0166016 L3.50195312,16.0166016 L0,0.268554688 Z M24.2236328,0.268554688 L28.5957031,0.268554688 L28.5957031,3.24414062 L24.2236328,3.24414062 L24.2236328,0.268554688 Z M24.2236328,4.60839844 L28.5957031,4.60839844 L28.5957031,16.0166016 L24.2236328,16.0166016 L24.2236328,4.60839844 Z M31.3886719,4.60839844 L35.4599609,4.60839844 L35.4599609,6.46679688 C36.0686879,5.7076785 36.6845672,5.16520345 37.3076172,4.83935547 C37.9306672,4.51350749 38.6897742,4.35058594 39.5849609,4.35058594 C40.7952534,4.35058594 41.7423468,4.71044562 42.4262695,5.43017578 C43.1101922,6.14990594 43.4521484,7.26171123 43.4521484,8.765625 L43.4521484,16.0166016 L39.0585938,16.0166016 L39.0585938,9.74316406 C39.0585938,9.02701465 38.9261081,8.52034654 38.6611328,8.22314453 C38.3961575,7.92594252 38.0237654,7.77734375 37.5439453,7.77734375 C37.0139947,7.77734375 36.5843115,7.97786258 36.2548828,8.37890625 C35.9254541,8.77994992 35.7607422,9.49966929 35.7607422,10.5380859 L35.7607422,16.0166016 L31.3886719,16.0166016 L31.3886719,4.60839844 Z M58.7275391,11.3974609 L49.9619141,11.3974609 C50.0406905,12.0992874 50.2304672,12.6220686 50.53125,12.9658203 C50.9537782,13.4599634 51.5052049,13.7070312 52.1855469,13.7070312 C52.6152365,13.7070312 53.0234356,13.5996104 53.4101563,13.3847656 C53.6464856,13.2486972 53.9007148,13.0087908 54.1728516,12.6650391 L58.4804688,13.0625 C57.8216113,14.2083391 57.0266974,15.0301082 56.0957031,15.527832 C55.1647089,16.0255559 53.8291103,16.2744141 52.0888672,16.2744141 C50.5777919,16.2744141 49.3890017,16.0613628 48.5224609,15.6352539 C47.6559201,15.209145 46.9379911,14.532394 46.3686523,13.6049805 C45.7993136,12.677567 45.5146484,11.5872458 45.5146484,10.3339844 C45.5146484,8.55077233 46.085769,7.10775291 47.2280273,6.00488281 C48.3702857,4.90201271 49.9475811,4.35058594 51.9599609,4.35058594 C53.5927816,4.35058594 54.8818312,4.59765378 55.8271484,5.09179688 C56.7724657,5.58593997 57.492185,6.30207864 57.9863281,7.24023438 C58.4804712,8.17839011 58.7275391,9.39940654 58.7275391,10.9033203 L58.7275391,11.3974609 Z M54.2802734,9.30273438 C54.1943355,8.45767807 53.9669615,7.85254089 53.5981445,7.48730469 C53.2293276,7.12206849 52.7441436,6.93945312 52.1425781,6.93945312 C51.4479132,6.93945312 50.8929057,7.21516651 50.4775391,7.76660156 C50.2125638,8.11035328 50.0442712,8.62239243 49.9726562,9.30273438 L54.2802734,9.30273438 Z M80.7919922,8.35742188 L84.2080078,9.12011719 C84.0289705,9.75032867 83.8570972,10.2552064 83.6923828,10.6347656 C83.5276684,11.0143248 83.2949234,11.4619115 82.9941406,11.9775391 L84.6376953,13.1054688 C84.8382171,13.2343756 85.0960271,13.3883455 85.4111328,13.5673828 L83.0585938,16.2744141 C82.6289041,16.0452462 82.1831078,15.7802749 81.7211914,15.4794922 C81.259275,15.1787094 80.845705,14.9208995 80.4804688,14.7060547 C79.7213504,15.2073593 78.9622434,15.57259 78.203125,15.8017578 C77.1503854,16.1168636 75.9544338,16.2744141 74.6152344,16.2744141 C72.5169166,16.2744141 70.9557343,15.8375695 69.9316406,14.9638672 C68.907547,14.0901649 68.3955078,13.0302797 68.3955078,11.7841797 C68.3955078,10.8889929 68.6962861,10.0421589 69.2978516,9.24365234 C69.8994171,8.44514575 70.8841077,7.77018505 72.2519531,7.21875 C71.6790336,6.52408507 71.2851573,5.92073824 71.0703125,5.40869141 C70.8554677,4.89664458 70.7480469,4.37565369 70.7480469,3.84570312 C70.7480469,2.72851004 71.1741494,1.80827185 72.0263672,1.08496094 C72.878585,0.361650029 74.1712153,0 75.9042969,0 C77.6731859,0 78.9729776,0.343746563 79.8037109,1.03125 C80.6344443,1.71875344 81.0498047,2.54231291 81.0498047,3.50195312 C81.0498047,4.03906519 80.9226901,4.55468503 80.668457,5.04882812 C80.414224,5.54297122 80.1080747,5.94400888 79.75,6.25195312 C79.3919253,6.55989737 78.7509812,7.01822612 77.8271484,7.62695312 C78.5934283,8.393233 79.3919229,9.10579098 80.2226562,9.76464844 C80.4446626,9.3206358 80.6344393,8.85156497 80.7919922,8.35742188 Z M75.7646484,5.59667969 C76.3304065,5.28873544 76.7672511,4.95394061 77.0751953,4.59228516 C77.3831396,4.2306297 77.5371094,3.88867349 77.5371094,3.56640625 C77.5371094,3.22981603 77.4082044,2.9451509 77.1503906,2.71240234 C76.8925768,2.47965378 76.5380882,2.36328125 76.0869141,2.36328125 C75.6429014,2.36328125 75.2812514,2.49218621 75.0019531,2.75 C74.7226549,3.00781379 74.5830078,3.31217272 74.5830078,3.66308594 C74.5830078,4.10709857 74.9768841,4.75162338 75.7646484,5.59667969 Z M74.2070312,9.42089844 C73.6054657,9.84342659 73.2062184,10.2050766 73.0092773,10.5058594 C72.8123363,10.8066421 72.7138672,11.1253238 72.7138672,11.4619141 C72.7138672,11.9847031 72.9394509,12.4501933 73.390625,12.8583984 C73.8417991,13.2666036 74.4290328,13.4707031 75.1523438,13.4707031 C75.9329466,13.4707031 76.8102165,13.1663442 77.7841797,12.5576172 C76.8531854,11.8414678 75.6608146,10.7959053 74.2070312,9.42089844 Z M105.746094,9.58203125 L110.010742,10.8710938 C109.724282,12.0670633 109.273115,13.0660767 108.657227,13.8681641 C108.041338,14.6702514 107.27686,15.2753886 106.36377,15.6835938 C105.450679,16.0917989 104.288744,16.2958984 102.87793,16.2958984 C101.166333,16.2958984 99.7680718,16.0470402 98.6831055,15.5493164 C97.5981391,15.0515926 96.6617878,14.176113 95.8740234,12.9228516 C95.0862591,11.6695901 94.6923828,10.0654395 94.6923828,8.11035156 C94.6923828,5.5035677 95.385247,3.50016976 96.7709961,2.10009766 C98.1567452,0.700025552 100.117175,0 102.652344,0 C104.636078,0 106.19547,0.401037656 107.330566,1.203125 C108.465663,2.00521234 109.308917,3.23697086 109.860352,4.8984375 L105.563477,5.85449219 C105.413085,5.37467208 105.255535,5.02376413 105.09082,4.80175781 C104.818684,4.42936012 104.485679,4.14290465 104.091797,3.94238281 C103.697915,3.74186098 103.257489,3.64160156 102.770508,3.64160156 C101.667638,3.64160156 100.822594,4.08560754 100.235352,4.97363281 C99.7913389,5.63249027 99.5693359,6.66731065 99.5693359,8.078125 C99.5693359,9.82552957 99.8343072,11.0232715 100.364258,11.6713867 C100.894208,12.3195019 101.638993,12.6435547 102.598633,12.6435547 C103.529627,12.6435547 104.233233,12.3821641 104.709473,11.859375 C105.185712,11.3365859 105.531249,10.5774789 105.746094,9.58203125 Z M112.083984,0.268554688 L116.456055,0.268554688 L116.456055,6.06933594 C117.050459,5.45344744 117.641273,5.01302216 118.228516,4.74804688 C118.815758,4.48307159 119.510413,4.35058594 120.3125,4.35058594 C121.501308,4.35058594 122.437659,4.71223597 123.121582,5.43554688 C123.805505,6.15885778 124.147461,7.26887272 124.147461,8.765625 L124.147461,16.0166016 L119.753906,16.0166016 L119.753906,9.74316406 C119.753906,9.02701465 119.621421,8.52034654 119.356445,8.22314453 C119.09147,7.92594252 118.719078,7.77734375 118.239258,7.77734375 C117.709307,7.77734375 117.279624,7.97786258 116.950195,8.37890625 C116.620767,8.77994992 116.456055,9.49966929 116.456055,10.5380859 L116.456055,16.0166016 L112.083984,16.0166016 L112.083984,0.268554688 Z M139.422852,11.3974609 L130.657227,11.3974609 C130.736003,12.0992874 130.92578,12.6220686 131.226562,12.9658203 C131.649091,13.4599634 132.200517,13.7070312 132.880859,13.7070312 C133.310549,13.7070312 133.718748,13.5996104 134.105469,13.3847656 C134.341798,13.2486972 134.596027,13.0087908 134.868164,12.6650391 L139.175781,13.0625 C138.516924,14.2083391 137.72201,15.0301082 136.791016,15.527832 C135.860021,16.0255559 134.524423,16.2744141 132.78418,16.2744141 C131.273104,16.2744141 130.084314,16.0613628 129.217773,15.6352539 C128.351233,15.209145 127.633304,14.532394 127.063965,13.6049805 C126.494626,12.677567 126.209961,11.5872458 126.209961,10.3339844 C126.209961,8.55077233 126.781082,7.10775291 127.92334,6.00488281 C129.065598,4.90201271 130.642894,4.35058594 132.655273,4.35058594 C134.288094,4.35058594 135.577144,4.59765378 136.522461,5.09179688 C137.467778,5.58593997 138.187498,6.30207864 138.681641,7.24023438 C139.175784,8.17839011 139.422852,9.39940654 139.422852,10.9033203 L139.422852,11.3974609 Z M134.975586,9.30273438 C134.889648,8.45767807 134.662274,7.85254089 134.293457,7.48730469 C133.92464,7.12206849 133.439456,6.93945312 132.837891,6.93945312 C132.143226,6.93945312 131.588218,7.21516651 131.172852,7.76660156 C130.907876,8.11035328 130.739584,8.62239243 130.667969,9.30273438 L134.975586,9.30273438 Z M154.09668,11.3974609 L145.331055,11.3974609 C145.409831,12.0992874 145.599608,12.6220686 145.900391,12.9658203 C146.322919,13.4599634 146.874346,13.7070312 147.554688,13.7070312 C147.984377,13.7070312 148.392576,13.5996104 148.779297,13.3847656 C149.015626,13.2486972 149.269855,13.0087908 149.541992,12.6650391 L153.849609,13.0625 C153.190752,14.2083391 152.395838,15.0301082 151.464844,15.527832 C150.53385,16.0255559 149.198251,16.2744141 147.458008,16.2744141 C145.946933,16.2744141 144.758142,16.0613628 143.891602,15.6352539 C143.025061,15.209145 142.307132,14.532394 141.737793,13.6049805 C141.168454,12.677567 140.883789,11.5872458 140.883789,10.3339844 C140.883789,8.55077233 141.45491,7.10775291 142.597168,6.00488281 C143.739426,4.90201271 145.316722,4.35058594 147.329102,4.35058594 C148.961922,4.35058594 150.250972,4.59765378 151.196289,5.09179688 C152.141606,5.58593997 152.861326,6.30207864 153.355469,7.24023438 C153.849612,8.17839011 154.09668,9.39940654 154.09668,10.9033203 L154.09668,11.3974609 Z M149.649414,9.30273438 C149.563476,8.45767807 149.336102,7.85254089 148.967285,7.48730469 C148.598468,7.12206849 148.113284,6.93945312 147.511719,6.93945312 C146.817054,6.93945312 146.262046,7.21516651 145.84668,7.76660156 C145.581704,8.11035328 145.413412,8.62239243 145.341797,9.30273438 L149.649414,9.30273438 Z M155.332031,12.8583984 L159.671875,12.4501953 C159.850912,12.9658229 160.101561,13.3346343 160.423828,13.5566406 C160.746095,13.7786469 161.175779,13.8896484 161.712891,13.8896484 C162.300133,13.8896484 162.754881,13.7643242 163.077148,13.5136719 C163.327801,13.327473 163.453125,13.094728 163.453125,12.8154297 C163.453125,12.5003239 163.288413,12.2568368 162.958984,12.0849609 C162.722655,11.9632155 162.096034,11.8128264 161.079102,11.6337891 C159.560865,11.3688138 158.506351,11.1235363 157.915527,10.8979492 C157.324704,10.6723622 156.826988,10.2910183 156.422363,9.75390625 C156.017739,9.21679419 155.81543,8.60449562 155.81543,7.91699219 C155.81543,7.1650353 156.033852,6.5169298 156.470703,5.97265625 C156.907554,5.4283827 157.509111,5.021974 158.275391,4.75341797 C159.04167,4.48486194 160.069329,4.35058594 161.358398,4.35058594 C162.719082,4.35058594 163.723467,4.45442604 164.371582,4.66210938 C165.019697,4.86979271 165.560382,5.19205511 165.993652,5.62890625 C166.426923,6.06575739 166.786782,6.6565718 167.073242,7.40136719 L162.926758,7.80957031 C162.819335,7.44433411 162.640301,7.17578211 162.389648,7.00390625 C162.045897,6.77473844 161.630536,6.66015625 161.143555,6.66015625 C160.649412,6.66015625 160.289552,6.74788324 160.063965,6.92333984 C159.838378,7.09879645 159.725586,7.31184771 159.725586,7.5625 C159.725586,7.84179827 159.868814,8.05305918 160.155273,8.19628906 C160.441733,8.33951895 161.064774,8.46842391 162.024414,8.58300781 C163.478197,8.74772218 164.559567,8.97688655 165.268555,9.27050781 C165.977543,9.56412907 166.520018,9.9830702 166.895996,10.5273438 C167.271975,11.0716173 167.459961,11.6695931 167.459961,12.3212891 C167.459961,12.9801465 167.261232,13.6210906 166.86377,14.2441406 C166.466307,14.8671906 165.839685,15.3631166 164.983887,15.7319336 C164.128088,16.1007505 162.962572,16.2851562 161.487305,16.2851562 C159.40331,16.2851562 157.919112,15.9879587 157.034668,15.3935547 C156.150223,14.7991507 155.582684,13.954107 155.332031,12.8583984 Z M182.208984,11.3974609 L173.443359,11.3974609 C173.522136,12.0992874 173.711913,12.6220686 174.012695,12.9658203 C174.435223,13.4599634 174.98665,13.7070312 175.666992,13.7070312 C176.096682,13.7070312 176.504881,13.5996104 176.891602,13.3847656 C177.127931,13.2486972 177.38216,13.0087908 177.654297,12.6650391 L181.961914,13.0625 C181.303057,14.2083391 180.508143,15.0301082 179.577148,15.527832 C178.646154,16.0255559 177.310556,16.2744141 175.570312,16.2744141 C174.059237,16.2744141 172.870447,16.0613628 172.003906,15.6352539 C171.137365,15.209145 170.419436,14.532394 169.850098,13.6049805 C169.280759,12.677567 168.996094,11.5872458 168.996094,10.3339844 C168.996094,8.55077233 169.567214,7.10775291 170.709473,6.00488281 C171.851731,4.90201271 173.429026,4.35058594 175.441406,4.35058594 C177.074227,4.35058594 178.363277,4.59765378 179.308594,5.09179688 C180.253911,5.58593997 180.97363,6.30207864 181.467773,7.24023438 C181.961917,8.17839011 182.208984,9.39940654 182.208984,10.9033203 L182.208984,11.3974609 Z M177.761719,9.30273438 C177.675781,8.45767807 177.448407,7.85254089 177.07959,7.48730469 C176.710773,7.12206849 176.225589,6.93945312 175.624023,6.93945312 C174.929359,6.93945312 174.374351,7.21516651 173.958984,7.76660156 C173.694009,8.11035328 173.525717,8.62239243 173.454102,9.30273438 L177.761719,9.30273438 Z" id="Shape"></path>
        </g>
    </g>
</svg>